<svg xmlns="http://www.w3.org/2000/svg" viewBox="0 0 916.67 916.67">
    <defs />
    <path fill="#f89521"
        d="M916.66 458.33c0 253.13-205.2 458.33-458.33 458.33S0 711.46 0 458.33 205.2 0 458.33 0s458.33 205.2 458.33 458.33" />
    <path fill="#fff"
        d="M640.83 765c-75-43.25-66.65-123.52-22.58-185.29l-51.1-27.38c-65.22 45.83-71.13 154-27.28 212.65z" />
    <path fill="#fff"
        d="M411.08 765.01h98.34c-25.59-51.54-25-119.83-1.93-171.65 30.53-68.71 125.73-106.74 123.43-193.32-3.06-114.74-116.67-225-212.07-277.49 68.87 134.4-313.59 297.68-11.64 452.09 0 0 8.72-23.59 16.44-37.63 7.1-12.9 20.92-31.44 20.92-31.44-181-85.34 17.34-203.59 3-332.25 45.76 49.67 113.76 151.14 106.65 220.31-7.06 68.54-70.51 97.28-106.83 149-36.73 52.32-42.72 146.49-36.31 222.37" />
    <path fill="#fff"
        d="M399.98 596.06s-23.72-11.2-38.06-19.83c-21-12.62-50.65-37.06-50.65-37.06 22.08 78.53 23.39 171.6-37.57 225.84h114.89c-2.07-66.23.48-114.36 11.39-168.95" />
</svg>