<svg xmlns="http://www.w3.org/2000/svg" xmlns:xlink="http://www.w3.org/1999/xlink" viewBox="0 0 172.019 254.58">
  <defs />
  <defs>
    <symbol id="prefix__b" overflow="visible">
      <path
        d="M5.078-4.031a.497.497 0 01-.047-.14s.172-.141.282-.22l1.75-1.343C8-6.438 8.39-6.47 8.688-6.5c.078-.016.171-.016.171-.203 0-.031-.03-.11-.109-.11-.219 0-.469.032-.703.032-.36 0-.75-.032-1.11-.032-.062 0-.187 0-.187.204 0 .062.047.093.125.109.219.016.297.063.297.203 0 .188-.297.422-.36.469L2.938-2.844l.797-3.203c.079-.36.11-.453.829-.453.25 0 .343 0 .343-.203 0-.078-.078-.11-.14-.11-.282 0-1 .032-1.282.032-.28 0-.984-.032-1.28-.032-.063 0-.204 0-.204.188 0 .125.094.125.297.125.125 0 .312.016.422.016.156.03.219.046.219.171 0 .032 0 .063-.032.188L1.562-.781c-.093.39-.109.469-.906.469-.172 0-.281 0-.281.187C.375 0 .5 0 .531 0c.281 0 .985-.031 1.266-.031.203 0 .422.015.64.015.22 0 .438.016.641.016.078 0 .203 0 .203-.203 0-.11-.094-.11-.281-.11-.375 0-.64 0-.64-.171 0-.079.046-.297.078-.438.14-.531.28-1.047.406-1.578l1.484-1.156L5.484-.97c.125.266.125.297.125.344 0 .313-.437.313-.53.313-.11 0-.22 0-.22.203C4.86 0 4.984 0 5 0c.406 0 .828-.031 1.219-.031.218 0 .765.031.984.031.047 0 .172 0 .172-.203 0-.11-.11-.11-.203-.11-.406 0-.531-.093-.688-.437zm0 0" />
    </symbol>
    <symbol id="prefix__c" overflow="visible">
      <path
        d="M5.156-3.719c.14 0 .5 0 .5-.344 0-.234-.218-.234-.39-.234H2.984c-1.5 0-2.609 1.64-2.609 2.828C.375-.594.969.11 1.875.11c1.172 0 2.5-1.203 2.5-2.734 0-.172 0-.656-.313-1.094zM1.891-.109C1.39-.11 1-.47 1-1.188c0-.296.11-1.109.469-1.703.422-.687 1.015-.828 1.36-.828.827 0 .905.656.905.969 0 .469-.203 1.281-.53 1.797-.392.578-.938.844-1.313.844zm0 0" />
    </symbol>
    <symbol id="prefix__d" overflow="visible">
      <path
        d="M3.39-4.219c.047-.203.063-.218.22-.234h.406c.437 0 .609 0 .78.047.313.093.329.297.329.547 0 .109 0 .203-.047.562l-.016.078c0 .078.047.11.125.11.11 0 .11-.063.125-.172L5.5-4.61c0-.094-.078-.094-.203-.094H1.016c-.172 0-.188 0-.235.14L.328-3.327c0 .031-.031.094-.031.125s.016.094.125.094c.094 0 .094-.032.14-.172.407-1.11.641-1.172 1.704-1.172h.28c.22 0 .22 0 .22.062 0 0 0 .047-.032.141L1.813-.578C1.75-.328 1.734-.25 1-.25c-.25 0-.313 0-.313.156 0 .016.016.094.125.094.188 0 .407-.016.594-.016.203 0 .407-.015.594-.015.203 0 .438 0 .64.015.188 0 .391.016.579.016.062 0 .156 0 .156-.156 0-.094-.063-.094-.281-.094-.125 0-.266-.016-.406-.016-.235-.015-.25-.046-.25-.125 0-.062 0-.062.03-.171zm0 0" />
    </symbol>
    <clipPath id="prefix__a">
      <path d="M1 108h171.02v146.578H1zm0 0" />
    </clipPath>
  </defs>
  <g clip-path="url(#prefix__a)">
    <path fill="none" stroke="#002b36" stroke-dasharray="2.989 2.989" stroke-miterlimit="10" stroke-width=".797"
      d="M62.445 244.219l99.215-49.606M55.36 233.59l99.21-49.61M48.273 222.957l99.211-49.605m-106.3 38.976l99.214-49.605m-106.3 38.976l99.215-49.605M27.011 191.07l99.215-49.61M19.926 180.438l99.21-49.605M12.84 169.812l99.215-49.605m-49.61 124.012l-49.605-74.41m63.777 67.324l-49.605-74.41m63.781 67.324l-49.61-74.41m63.782 67.32l-49.606-74.41m63.778 67.324l-49.606-74.41m63.782 67.324l-49.606-74.41m63.777 67.324L97.88 127.29m63.773 67.324l-49.605-74.41" />
  </g>
  <path fill="#67aedf" stroke="#002b36" stroke-miterlimit="10" stroke-width=".797"
    d="M69.531 226.504l-7.086-10.633 14.172-7.086 7.09 10.63zm0 0" />
  <path fill="#67aedf" stroke="#002b36" stroke-miterlimit="10" stroke-width=".797"
    d="M62.445 215.871l-7.086-10.629 14.172-7.086 7.086 10.63zm0 0" />
  <path fill="#67aedf" stroke="#002b36" stroke-miterlimit="10" stroke-width=".797"
    d="M55.36 205.242l-7.087-10.629 14.172-7.086 7.086 10.63zm0 0" />
  <path fill="#67aedf" stroke="#002b36" stroke-miterlimit="10" stroke-width=".797"
    d="M48.273 194.613l-7.09-10.633 14.176-7.085 7.086 10.632zm0 0" />
  <path fill="#67aedf" stroke="#002b36" stroke-miterlimit="10" stroke-width=".797"
    d="M41.184 183.98l-7.086-10.628 14.175-7.086 7.086 10.629zm0 0M83.707 219.414l-7.09-10.629 14.176-7.086 7.086 10.63zm0 0" />
  <path fill="#67aedf" stroke="#002b36" stroke-miterlimit="10" stroke-width=".797"
    d="M76.617 208.785l-7.086-10.629 14.176-7.086 7.086 10.63zm0 0" />
  <path fill="#67aedf" stroke="#002b36" stroke-miterlimit="10" stroke-width=".797"
    d="M69.531 198.156l-7.086-10.629 14.172-7.09 7.09 10.633zm0 0M62.445 187.527l-7.086-10.632 14.172-7.086 7.086 10.628zm0 0" />
  <path fill="#67aedf" stroke="#002b36" stroke-miterlimit="10" stroke-width=".797"
    d="M55.36 176.895l-7.087-10.63 14.172-7.085 7.086 10.629zm0 0M97.879 212.328L90.793 201.7l14.172-7.086 7.086 10.63zm0 0M90.793 201.7l-7.086-10.63 14.172-7.09 7.086 10.633zm0 0M83.707 191.07l-7.09-10.632 14.176-7.086 7.086 10.628zm0 0" />
  <path fill="#67aedf" stroke="#002b36" stroke-miterlimit="10" stroke-width=".797"
    d="M76.617 180.438l-7.086-10.63 14.176-7.085 7.086 10.629zm0 0" />
  <path fill="#67aedf" stroke="#002b36" stroke-miterlimit="10" stroke-width=".797"
    d="M69.531 169.809l-7.086-10.63 14.172-7.085 7.09 10.629zm0 0M112.05 205.242l-7.085-10.629 14.172-7.086 7.09 10.63zm0 0" />
  <path fill="#67aedf" stroke="#002b36" stroke-miterlimit="10" stroke-width=".797"
    d="M104.965 194.613l-7.086-10.633 14.172-7.085 7.086 10.632zm0 0M97.879 183.98l-7.086-10.628 14.172-7.086 7.086 10.629zm0 0" />
  <path fill="#67aedf" stroke="#002b36" stroke-miterlimit="10" stroke-width=".797"
    d="M90.793 173.352l-7.086-10.63 14.172-7.085 7.086 10.629zm0 0" />
  <path fill="#67aedf" stroke="#002b36" stroke-miterlimit="10" stroke-width=".797"
    d="M83.707 162.723l-7.09-10.63 14.176-7.09 7.086 10.634zm0 0M126.227 198.156l-7.09-10.629 14.176-7.09 7.085 10.633zm0 0M119.137 187.527l-7.086-10.632 14.176-7.086 7.086 10.628zm0 0" />
  <path fill="#67aedf" stroke="#002b36" stroke-miterlimit="10" stroke-width=".797"
    d="M112.05 176.895l-7.085-10.63 14.172-7.085 7.09 10.629zm0 0" />
  <path fill="#67aedf" stroke="#002b36" stroke-miterlimit="10" stroke-width=".797"
    d="M104.965 166.266l-7.086-10.63 14.172-7.09 7.086 10.634zm0 0" />
  <path fill="#67aedf" stroke="#002b36" stroke-miterlimit="10" stroke-width=".797"
    d="M97.879 155.637l-7.086-10.633 14.172-7.086 7.086 10.629zm0 0" />
  <path fill="#0f3854" fill-opacity=".4" stroke="#000" stroke-miterlimit="10" stroke-opacity=".4" stroke-width=".399"
    d="M76.617 208.785l-7.086-10.629 14.176-7.086 7.086 10.63zm0 0" />
  <path fill="#0f3854" fill-opacity=".4" stroke="#000" stroke-miterlimit="10" stroke-opacity=".4" stroke-width=".399"
    d="M69.531 198.156l-7.086-10.629 14.172-7.09 7.09 10.633zm0 0M62.445 187.527l-7.086-10.632 14.172-7.086 7.086 10.628zm0 0M90.793 201.7l-7.086-10.63 14.172-7.09 7.086 10.633zm0 0" />
  <path fill="#0f3854" fill-opacity=".4" stroke="#000" stroke-miterlimit="10" stroke-opacity=".4" stroke-width=".399"
    d="M83.707 191.07l-7.09-10.632 14.176-7.086 7.086 10.628zm0 0" />
  <path fill="#0f3854" fill-opacity=".4" stroke="#000" stroke-miterlimit="10" stroke-opacity=".4" stroke-width=".399"
    d="M76.617 180.438l-7.086-10.63 14.176-7.085 7.086 10.629zm0 0M104.965 194.613l-7.086-10.633 14.172-7.085 7.086 10.632zm0 0M97.879 183.98l-7.086-10.628 14.172-7.086 7.086 10.629zm0 0" />
  <path fill="#0f3854" fill-opacity=".4" stroke="#000" stroke-miterlimit="10" stroke-opacity=".4" stroke-width=".399"
    d="M90.793 173.352l-7.086-10.63 14.172-7.085 7.086 10.629zm0 0" />
  <path fill="none" stroke="#000" stroke-miterlimit="10" stroke-width=".399"
    d="M76.617 208.785l-7.086-74.41m49.606 53.152l-35.43-60.238m-28.348 49.606l7.086-53.149m35.434 31.89L76.617 116.66" />
  <path fill="#2aa198" fill-opacity=".6" stroke="#000" stroke-miterlimit="10" stroke-opacity=".6" stroke-width=".399"
    d="M62.445 152.094l-21.261-31.89L83.707 98.94l21.258 31.891zm0 0" />
  <path fill="none" stroke="#002b36" stroke-miterlimit="10" stroke-width=".797"
    d="M62.445 152.094l42.52-21.262m-49.606 10.629l42.52-21.258m-49.606 10.629l42.52-21.262m-49.606 10.637l42.52-21.262m-21.262 53.149l-21.261-31.89m35.433 24.8l-21.258-31.89m35.434 24.804l-21.262-31.89m35.43 24.808l-21.262-31.89" />
  <path fill="#11403d" fill-opacity=".6" stroke="#000" stroke-miterlimit="10" stroke-opacity=".6" stroke-width=".399"
    d="M62.445 123.746l7.086 10.629 14.176-7.086-7.09-10.629zm0 0" />
  <path fill="none" stroke="#002b36" stroke-miterlimit="10" stroke-width=".797"
    d="M62.445 123.746l-7.086-10.633 14.172-7.086 7.086 10.633zm0 0" />
  <path fill="none" stroke="#000" stroke-miterlimit="10" stroke-width=".399"
    d="M69.531 134.375v-21.262m14.176 14.176v-21.262m-21.262 17.72v-21.263m14.172 14.176V95.398" />
  <path fill="#600" fill-opacity=".6" stroke="#000" stroke-miterlimit="10" stroke-opacity=".6" stroke-width=".399"
    d="M62.445 102.484l7.086 10.63 14.176-7.087-7.09-10.629zm0 0" />
  <path fill="#ff8080" fill-opacity=".8" stroke="#000" stroke-miterlimit="10" stroke-opacity=".8" stroke-width=".399"
    d="M62.445 130.832l-7.086-10.629 14.172-7.09 7.086 10.633zm0 0" />
  <path fill="#f66" fill-opacity=".8" stroke="#000" stroke-miterlimit="10" stroke-opacity=".8" stroke-width=".399"
    d="M55.36 120.203l-7.087-10.633 14.172-7.086 7.086 10.63zm0 0" />
  <path fill="#ff4c4c" fill-opacity=".8" stroke="#000" stroke-miterlimit="10" stroke-opacity=".8" stroke-width=".399"
    d="M48.273 109.57l-7.09-10.629 14.176-7.086 7.086 10.63zm0 0" />
  <path fill="#f33" fill-opacity=".8" stroke="#000" stroke-miterlimit="10" stroke-opacity=".8" stroke-width=".399"
    d="M76.617 123.746l-7.086-10.633 14.176-7.086 7.086 10.633zm0 0" />
  <path fill="red" fill-opacity=".8" stroke="#000" stroke-miterlimit="10" stroke-opacity=".8" stroke-width=".399"
    d="M69.531 113.113l-7.086-10.629 14.172-7.086 7.09 10.63zm0 0" />
  <path fill="#ff5959" fill-opacity=".8" stroke="#000" stroke-miterlimit="10" stroke-opacity=".8" stroke-width=".399"
    d="M62.445 102.484L55.36 91.855l14.172-7.085 7.086 10.628zm0 0" />
  <path fill="#f66" fill-opacity=".8" stroke="#000" stroke-miterlimit="10" stroke-opacity=".8" stroke-width=".399"
    d="M90.793 116.66l-7.086-10.633 14.172-7.086 7.086 10.63zm0 0" />
  <path fill="#ff8080" fill-opacity=".8" stroke="#000" stroke-miterlimit="10" stroke-opacity=".8" stroke-width=".399"
    d="M83.707 106.027l-7.09-10.629 14.176-7.085 7.086 10.628zm0 0" />
  <path fill="#ff8080" fill-opacity=".8" stroke="#000" stroke-miterlimit="10" stroke-opacity=".8" stroke-width=".399"
    d="M76.617 95.398L69.531 84.77l14.176-7.09 7.086 10.632zm0 0" />
  <path fill="none" stroke="#000" stroke-miterlimit="10" stroke-width=".399"
    d="M69.531 113.113l7.086-31.886m7.09 24.8l35.43-46.062m-56.692 42.52l-7.086-53.15m21.258 46.063L97.88 28.074" />
  <path fill="#268bd2" fill-opacity=".7" stroke="#002b36" stroke-miterlimit="10" stroke-opacity=".7" stroke-width=".797"
    d="M69.531 98.941l-7.086-10.629 14.172-7.085 7.09 10.628zm0 0" />
  <path fill="#268bd2" fill-opacity=".7" stroke="#002b36" stroke-miterlimit="10" stroke-opacity=".7" stroke-width=".797"
    d="M62.445 88.313L55.36 77.68l14.172-7.086 7.086 10.633zm0 0M55.36 77.68l-7.087-10.63 14.172-7.085 7.086 10.629zm0 0M48.273 67.05l-7.09-10.628 14.176-7.086 7.086 10.629zm0 0" />
  <path fill="#268bd2" fill-opacity=".7" stroke="#002b36" stroke-miterlimit="10" stroke-opacity=".7" stroke-width=".797"
    d="M41.184 56.422l-7.086-10.629 14.175-7.09 7.086 10.633zm0 0M83.707 91.855l-7.09-10.628 14.176-7.09 7.086 10.633zm0 0" />
  <path fill="#268bd2" fill-opacity=".7" stroke="#002b36" stroke-miterlimit="10" stroke-opacity=".7" stroke-width=".797"
    d="M76.617 81.227l-7.086-10.633 14.176-7.086 7.086 10.629zm0 0M69.531 70.594l-7.086-10.63 14.172-7.085 7.09 10.629zm0 0" />
  <path fill="#268bd2" fill-opacity=".7" stroke="#002b36" stroke-miterlimit="10" stroke-opacity=".7" stroke-width=".797"
    d="M62.445 59.965l-7.086-10.63 14.172-7.089 7.086 10.633zm0 0" />
  <path fill="#268bd2" fill-opacity=".7" stroke="#002b36" stroke-miterlimit="10" stroke-opacity=".7" stroke-width=".797"
    d="M55.36 49.336l-7.087-10.633 14.172-7.086 7.086 10.63zm0 0M97.879 84.77l-7.086-10.633 14.172-7.086 7.086 10.629zm0 0" />
  <path fill="#268bd2" fill-opacity=".7" stroke="#002b36" stroke-miterlimit="10" stroke-opacity=".7" stroke-width=".797"
    d="M90.793 74.137l-7.086-10.63 14.172-7.085 7.086 10.629zm0 0" />
  <path fill="#268bd2" fill-opacity=".7" stroke="#002b36" stroke-miterlimit="10" stroke-opacity=".7" stroke-width=".797"
    d="M83.707 63.508l-7.09-10.63 14.176-7.085 7.086 10.629zm0 0" />
  <path fill="#268bd2" fill-opacity=".7" stroke="#002b36" stroke-miterlimit="10" stroke-opacity=".7" stroke-width=".797"
    d="M76.617 52.879l-7.086-10.633 14.176-7.086 7.086 10.633zm0 0" />
  <path fill="#268bd2" fill-opacity=".7" stroke="#002b36" stroke-miterlimit="10" stroke-opacity=".7" stroke-width=".797"
    d="M69.531 42.246l-7.086-10.629 14.172-7.086 7.09 10.63zm0 0M112.05 77.68l-7.085-10.63 14.172-7.085 7.09 10.629zm0 0M104.965 67.05l-7.086-10.628 14.172-7.086 7.086 10.629zm0 0" />
  <path fill="#268bd2" fill-opacity=".7" stroke="#002b36" stroke-miterlimit="10" stroke-opacity=".7" stroke-width=".797"
    d="M97.879 56.422l-7.086-10.629 14.172-7.09 7.086 10.633zm0 0" />
  <path fill="#268bd2" fill-opacity=".7" stroke="#002b36" stroke-miterlimit="10" stroke-opacity=".7" stroke-width=".797"
    d="M90.793 45.793L83.707 35.16l14.172-7.086 7.086 10.63zm0 0" />
  <path fill="#268bd2" fill-opacity=".7" stroke="#002b36" stroke-miterlimit="10" stroke-opacity=".7" stroke-width=".797"
    d="M83.707 35.16l-7.09-10.629 14.176-7.086 7.086 10.63zm0 0M126.227 70.594l-7.09-10.63 14.176-7.085 7.085 10.629zm0 0" />
  <path fill="#268bd2" fill-opacity=".7" stroke="#002b36" stroke-miterlimit="10" stroke-opacity=".7" stroke-width=".797"
    d="M119.137 59.965l-7.086-10.63 14.176-7.089 7.086 10.633zm0 0" />
  <path fill="#268bd2" fill-opacity=".7" stroke="#002b36" stroke-miterlimit="10" stroke-opacity=".7" stroke-width=".797"
    d="M112.05 49.336l-7.085-10.633 14.172-7.086 7.09 10.63zm0 0" />
  <path fill="#268bd2" fill-opacity=".7" stroke="#002b36" stroke-miterlimit="10" stroke-opacity=".7" stroke-width=".797"
    d="M104.965 38.703l-7.086-10.629 14.172-7.086 7.086 10.63zm0 0" />
  <path fill="#268bd2" fill-opacity=".7" stroke="#002b36" stroke-miterlimit="10" stroke-opacity=".7" stroke-width=".797"
    d="M97.879 28.074l-7.086-10.629 14.172-7.086 7.086 10.63zm0 0" />
  <path fill="#0f3854" fill-opacity=".4" stroke="#000" stroke-miterlimit="10" stroke-opacity=".4" stroke-width=".399"
    d="M76.617 81.227l-7.086-10.633 14.176-7.086 7.086 10.629zm0 0M69.531 70.594l-7.086-10.63 14.172-7.085 7.09 10.629zm0 0" />
  <path fill="#0f3854" fill-opacity=".4" stroke="#000" stroke-miterlimit="10" stroke-opacity=".4" stroke-width=".399"
    d="M62.445 59.965l-7.086-10.63 14.172-7.089 7.086 10.633zm0 0M90.793 74.137l-7.086-10.63 14.172-7.085 7.086 10.629zm0 0" />
  <path fill="#0f3854" fill-opacity=".4" stroke="#000" stroke-miterlimit="10" stroke-opacity=".4" stroke-width=".399"
    d="M83.707 63.508l-7.09-10.63 14.176-7.085 7.086 10.629zm0 0" />
  <path fill="#0f3854" fill-opacity=".4" stroke="#000" stroke-miterlimit="10" stroke-opacity=".4" stroke-width=".399"
    d="M76.617 52.879l-7.086-10.633 14.176-7.086 7.086 10.633zm0 0M104.965 67.05l-7.086-10.628 14.172-7.086 7.086 10.629zm0 0" />
  <path fill="#0f3854" fill-opacity=".4" stroke="#000" stroke-miterlimit="10" stroke-opacity=".4" stroke-width=".399"
    d="M97.879 56.422l-7.086-10.629 14.172-7.09 7.086 10.633zm0 0" />
  <path fill="#0f3854" fill-opacity=".4" stroke="#000" stroke-miterlimit="10" stroke-opacity=".4" stroke-width=".399"
    d="M90.793 45.793L83.707 35.16l14.172-7.086 7.086 10.63zm0 0" />
  <use x="26.635" y="131.512" xlink:href="#prefix__b" />
  <use x="28.197" y="99.355" xlink:href="#prefix__c" />
  <use x="16.411" y="47.147" xlink:href="#prefix__b" />
  <use x="25.585" y="43.531" xlink:href="#prefix__d" />
</svg>