<svg xmlns="http://www.w3.org/2000/svg" xmlns:xlink="http://www.w3.org/1999/xlink" viewBox="10 0 794.915 197.593">
  <style>
    .unstable_stroke {
      stroke: #67aedf
    }

    .unstable_fill {
      fill: #268bd2
    }

    .stable_stroke {
      stroke: #ff8080
    }

    .stable_fill {
      fill: #ff4c4c
    }
  </style>
  <defs>
    <path id="a" d="M1.906-.531a.534.534 0 0 0-.515-.531.537.537 0 0 0-.532.53.524.524 0 1 0 1.047 0Zm0 0" />
    <symbol id="b" overflow="visible">
      <path
        d="M2.938-6.375c0-.25 0-.266-.235-.266C2.078-6 1.203-6 .891-6v.313c.203 0 .78 0 1.296-.266v5.172c0 .36-.03.469-.921.469H.953V0c.344-.031 1.203-.031 1.61-.031.39 0 1.265 0 1.609.031v-.313h-.313c-.906 0-.921-.109-.921-.468Zm0 0" />
    </symbol>
    <symbol id="c" overflow="visible">
      <path
        d="M4.75-6.078c.078-.11.078-.125.078-.344H2.406c-1.203 0-1.234-.125-1.265-.312H.89L.562-4.688h.25c.032-.156.11-.78.25-.906.063-.062.844-.062.97-.062h2.062c-.11.156-.89 1.25-1.11 1.578C2.078-2.734 1.75-1.344 1.75-.328c0 .094 0 .547.469.547.453 0 .453-.453.453-.547v-.516c0-.547.031-1.094.11-1.625.046-.234.171-1.094.624-1.703Zm0 0" />
    </symbol>
    <symbol id="d" overflow="visible">
      <path
        d="M2.938-1.64v.859c0 .36-.032.469-.766.469h-.203V0c.406-.031.922-.031 1.343-.031.422 0 .938 0 1.36.031v-.313h-.219c-.734 0-.75-.109-.75-.468v-.86h.985v-.312h-.985v-4.531c0-.204 0-.266-.172-.266-.078 0-.11 0-.187.125L.28-1.953v.312Zm.046-.313H.563l2.421-3.719Zm0 0" />
    </symbol>
    <symbol id="e" overflow="visible">
      <path
        d="m1.266-.766 1.062-1.03c1.547-1.376 2.14-1.907 2.14-2.907 0-1.14-.89-1.938-2.109-1.938A1.843 1.843 0 0 0 .5-4.828c0 .547.5.547.531.547.172 0 .516-.11.516-.532a.513.513 0 0 0-.531-.515c-.079 0-.094 0-.125.016.218-.657.765-1.016 1.343-1.016.907 0 1.329.812 1.329 1.625 0 .797-.485 1.578-1.047 2.203L.609-.375C.5-.265.5-.235.5 0h3.703l.266-1.734h-.235C4.172-1.438 4.11-1 4-.844c-.063.078-.719.078-.938.078Zm0 0" />
    </symbol>
    <symbol id="f" overflow="visible">
      <path
        d="M1.313-3.266v-.25c0-2.515 1.234-2.875 1.75-2.875.234 0 .656.063.874.407-.156 0-.546 0-.546.437 0 .313.234.469.453.469.156 0 .469-.094.469-.484 0-.594-.438-1.079-1.266-1.079C1.766-6.64.422-5.359.422-3.156.422-.484 1.578.219 2.5.219c1.11 0 2.063-.938 2.063-2.25 0-1.266-.891-2.219-2-2.219-.672 0-1.047.5-1.25.984ZM2.5-.062c-.625 0-.922-.594-.984-.75-.188-.47-.188-1.266-.188-1.438 0-.781.328-1.781 1.219-1.781.172 0 .625 0 .937.625.172.36.172.875.172 1.36 0 .483 0 .983-.172 1.343-.296.594-.75.64-.984.64Zm0 0" />
    </symbol>
    <symbol id="g" overflow="visible">
      <path
        d="M4.578-3.188c0-.796-.047-1.593-.39-2.328C3.733-6.484 2.905-6.64 2.5-6.64c-.61 0-1.328.266-1.75 1.188-.313.687-.36 1.469-.36 2.266 0 .75.032 1.64.454 2.406a1.83 1.83 0 0 0 1.64 1c.532 0 1.297-.203 1.735-1.157.312-.687.36-1.468.36-2.25ZM2.484 0c-.39 0-.984-.25-1.156-1.203-.11-.594-.11-1.516-.11-2.11 0-.64 0-1.296.079-1.828.187-1.187.937-1.28 1.187-1.28.329 0 .985.187 1.172 1.171.11.563.11 1.313.11 1.938 0 .75 0 1.421-.11 2.062C3.5-.297 2.937 0 2.484 0Zm0 0" />
    </symbol>
    <symbol id="i" overflow="visible">
      <path
        d="M4.469-2c0-1.188-.813-2.188-1.89-2.188-.47 0-.907.157-1.267.516v-1.953c.204.063.532.125.844.125 1.235 0 1.938-.906 1.938-1.031 0-.063-.032-.11-.11-.11 0 0-.03 0-.078.032a3.22 3.22 0 0 1-1.36.296 3.4 3.4 0 0 1-1.327-.28c-.078-.032-.094-.032-.11-.032C1-6.625 1-6.547 1-6.391v2.954c0 .171 0 .25.14.25.079 0 .094-.016.141-.079.11-.156.469-.703 1.282-.703.515 0 .765.453.843.64.156.376.188.75.188 1.25 0 .36 0 .954-.25 1.376-.235.39-.61.64-1.063.64-.719 0-1.297-.53-1.469-1.109.032 0 .063.016.172.016.329 0 .5-.25.5-.485 0-.25-.171-.5-.5-.5-.14 0-.484.079-.484.532C.5-.75 1.188.219 2.297.219 3.453.219 4.469-.734 4.469-2Zm0 0" />
    </symbol>
    <symbol id="l" overflow="visible">
      <path
        d="M5.797-2.578h-.25c-.11 1.015-.25 2.265-2 2.265h-.813c-.468 0-.484-.062-.484-.39v-5.313c0-.343 0-.484.938-.484h.328v-.313c-.36.032-1.266.032-1.672.032-.39 0-1.172 0-1.516-.032v.313h.234c.766 0 .797.11.797.469v5.25c0 .36-.03.469-.796.469H.328V0h5.188Zm0 0" />
    </symbol>
    <symbol id="m" overflow="visible">
      <path
        d="M3.313-.75c.046.39.312.813.78.813.22 0 .829-.141.829-.954v-.562h-.25v.562c0 .579-.25.641-.36.641-.328 0-.375-.453-.375-.5v-1.984c0-.422 0-.813-.359-1.188a1.9 1.9 0 0 0-1.36-.547C1.391-4.469.703-4 .703-3.344c0 .297.203.469.469.469a.435.435 0 0 0 .453-.453c0-.125-.047-.453-.516-.453.282-.36.766-.469 1.079-.469.5 0 1.062.39 1.062 1.281v.36c-.516.03-1.203.062-1.828.359-.75.344-1 .86-1 1.297 0 .812.969 1.062 1.594 1.062A1.38 1.38 0 0 0 3.312-.75ZM3.25-2.39v1c0 .937-.719 1.28-1.172 1.28-.484 0-.89-.343-.89-.843 0-.547.421-1.375 2.062-1.438Zm0 0" />
    </symbol>
    <symbol id="n" overflow="visible">
      <path
        d="M4.14-3.344c.25-.64.766-.64.923-.64v-.313c-.235.016-.516.031-.75.031-.172 0-.641-.015-.86-.03v.312c.313 0 .469.171.469.421 0 .11-.016.126-.063.25L2.844-.874 1.75-3.547c-.047-.11-.063-.14-.063-.187 0-.25.36-.25.563-.25v-.313c-.266.016-.922.031-1.094.031-.265 0-.672-.015-.968-.03v.312c.484 0 .671 0 .812.343L2.5 0a6.764 6.764 0 0 0-.25.594c-.219.547-.5 1.234-1.14 1.234-.048 0-.282 0-.47-.187.313-.032.391-.25.391-.422C1.031.969.844.812.61.812c-.203 0-.421.125-.421.422 0 .454.421.813.921.813.625 0 1.032-.578 1.266-1.14Zm0 0" />
    </symbol>
    <symbol id="o" overflow="visible">
      <path
        d="M1.11-2.516C1.171-4 2.015-4.25 2.36-4.25c1.015 0 1.124 1.344 1.124 1.734Zm0 .22h2.78c.22 0 .25 0 .25-.22 0-.984-.546-1.953-1.78-1.953-1.158 0-2.08 1.032-2.08 2.282C.281-.86 1.328.108 2.47.108 3.688.11 4.14-1 4.14-1.187c0-.094-.079-.125-.141-.125-.078 0-.11.062-.125.14C3.531-.14 2.625-.14 2.531-.14c-.5 0-.89-.296-1.125-.671-.297-.47-.297-1.125-.297-1.485Zm0 0" />
    </symbol>
    <symbol id="p" overflow="visible">
      <path
        d="M1.672-3.313v-1.093l-1.39.11v.312c.702 0 .78.062.78.562V-.75c0 .438-.109.438-.78.438V0c.39-.016.859-.031 1.14-.031.39 0 .86 0 1.266.031v-.313h-.22c-.734 0-.75-.109-.75-.468v-1.531c0-.985.423-1.876 1.173-1.876.062 0 .093 0 .109.016-.031 0-.234.125-.234.39 0 .266.218.423.437.423a.421.421 0 0 0 .422-.438c0-.312-.313-.61-.734-.61-.735 0-1.094.673-1.22 1.095Zm0 0" />
    </symbol>
    <symbol id="t" overflow="visible">
      <path
        d="M2.234-3.516v-2.578c0-.234 0-.36.22-.39.093-.016.39-.016.593-.016.89 0 2 .047 2 1.484 0 .688-.234 1.5-1.703 1.5Zm2.11.125c.953-.234 1.734-.843 1.734-1.625 0-.953-1.14-1.796-2.594-1.796H.344v.312h.25c.765 0 .781.11.781.469v5.25c0 .36-.016.469-.781.469h-.25V0c.36-.031 1.078-.031 1.453-.031.39 0 1.11 0 1.469.031v-.313h-.25c-.766 0-.782-.109-.782-.468v-2.516h1.141c.156 0 .578 0 .938.344.375.344.375.656.375 1.328 0 .64 0 1.047.406 1.422.406.36.953.422 1.25.422.781 0 .953-.813.953-1.094 0-.063 0-.172-.125-.172-.11 0-.11.094-.125.156C6.984-.17 6.64 0 6.39 0c-.485 0-.563-.516-.704-1.438l-.14-.796c-.172-.641-.656-.97-1.203-1.157Zm0 0" />
    </symbol>
    <symbol id="u" overflow="visible">
      <path
        d="M2.078-1.938c.219.047 1.031.204 1.031.922 0 .5-.343.907-1.125.907-.843 0-1.203-.563-1.39-1.422-.031-.125-.031-.157-.14-.157-.126 0-.126.063-.126.235v1.328c0 .172 0 .234.11.234C.483.11.5.094.688-.094.703-.109.703-.125.89-.312c.437.406.89.421 1.093.421 1.141 0 1.61-.671 1.61-1.39 0-.516-.297-.828-.422-.938-.328-.328-.719-.406-1.14-.484-.563-.11-1.22-.235-1.22-.813 0-.359.25-.765 1.11-.765 1.094 0 1.156.906 1.172 1.203 0 .094.094.094.11.094.14 0 .14-.047.14-.235v-1.015c0-.157 0-.235-.11-.235-.046 0-.078 0-.203.125a1.676 1.676 0 0 1-.172.157c-.375-.282-.78-.282-.937-.282-1.219 0-1.594.672-1.594 1.235 0 .343.156.625.422.843.328.25.61.313 1.328.454Zm0 0" />
    </symbol>
    <symbol id="v" overflow="visible">
      <path
        d="M2.313-6.672c-.094-.125-.094-.14-.282-.14H.328v.312h.297c.14 0 .344.016.484.016.235.03.25.046.25.234v5.203c0 .266 0 .734-1.03.734V0c.343-.016.843-.031 1.171-.031.328 0 .813.015 1.156.031v-.313c-1.015 0-1.015-.468-1.015-.734v-5.187c.046.046.046.062.093.125L5.797-.125c.094.11.11.125.172.125.14 0 .14-.063.14-.266v-5.5c0-.265 0-.734 1.032-.734v-.313c-.36.016-.844.032-1.172.032-.328 0-.813-.016-1.157-.032v.313c1.016 0 1.016.469 1.016.734V-1.5Zm0 0" />
    </symbol>
    <symbol id="w" overflow="visible">
      <path
        d="M1.719-3.984h1.437v-.313H1.72v-1.828h-.25c0 .813-.297 1.875-1.282 1.922v.219h.844v2.75c0 1.218.938 1.343 1.297 1.343.703 0 .985-.703.985-1.343v-.563h-.25v.547c0 .734-.297 1.11-.672 1.11-.672 0-.672-.907-.672-1.079Zm0 0" />
    </symbol>
    <symbol id="x" overflow="visible">
      <path
        d="m3.484-3.875-1.28-.297c-.626-.156-1-.687-1-1.266 0-.703.53-1.312 1.312-1.312 1.656 0 1.875 1.64 1.937 2.078.016.063.016.125.125.125.125 0 .125-.047.125-.234v-2c0-.172 0-.25-.11-.25-.062 0-.077.015-.14.14l-.36.563c-.296-.297-.702-.703-1.593-.703-1.11 0-1.938.875-1.938 1.937 0 .828.532 1.563 1.297 1.828.11.032.625.157 1.329.329.265.062.562.14.843.5.203.265.313.593.313.921 0 .704-.5 1.422-1.344 1.422-.281 0-1.047-.047-1.578-.531-.578-.547-.61-1.172-.61-1.531-.015-.11-.093-.11-.125-.11-.125 0-.125.079-.125.25v2c0 .172 0 .235.11.235.062 0 .078-.016.14-.125 0-.016.032-.047.36-.578.312.343.953.703 1.844.703 1.156 0 1.953-.969 1.953-2.078 0-.985-.657-1.813-1.485-2.016Zm0 0" />
    </symbol>
    <symbol id="y" overflow="visible">
      <path
        d="M1.094-3.422V-.75c0 .438-.11.438-.782.438V0c.36-.016.86-.031 1.141-.031.25 0 .766.015 1.11.031v-.313c-.672 0-.782 0-.782-.437v-1.844c0-1.031.719-1.594 1.344-1.594.64 0 .75.532.75 1.11V-.75c0 .438-.11.438-.781.438V0c.344-.016.86-.031 1.125-.031.25 0 .781.015 1.11.031v-.313c-.657 0-.766 0-.766-.437v-1.844c0-1.031.703-1.594 1.343-1.594.625 0 .735.532.735 1.11V-.75c0 .438-.11.438-.782.438V0c.344-.016.86-.031 1.125-.031.266 0 .782.015 1.125.031v-.313c-.515 0-.765 0-.78-.296v-1.907c0-.859 0-1.156-.313-1.515-.141-.172-.47-.375-1.047-.375-.828 0-1.282.593-1.438.984-.14-.875-.875-.984-1.328-.984-.734 0-1.203.422-1.484 1.047v-1.047l-1.407.11v.312c.704 0 .782.062.782.562Zm0 0" />
    </symbol>
    <symbol id="z" overflow="visible">
      <use xlink:href="#a" />
    </symbol>
    <symbol id="C" overflow="visible">
      <path
        d="M2.89-3.516c.813-.265 1.391-.953 1.391-1.75 0-.812-.875-1.375-1.828-1.375-1 0-1.765.594-1.765 1.36 0 .328.218.515.515.515.297 0 .5-.218.5-.515 0-.485-.469-.485-.61-.485.298-.5.954-.625 1.313-.625.422 0 .969.22.969 1.11 0 .125-.031.703-.281 1.14-.297.485-.64.516-.89.516a3.29 3.29 0 0 1-.392.031c-.078.016-.14.031-.14.125 0 .11.062.11.234.11h.438c.812 0 1.187.671 1.187 1.656 0 1.36-.687 1.64-1.125 1.64-.437 0-1.187-.171-1.531-.75.344.047.656-.171.656-.546a.537.537 0 0 0-.547-.563c-.25 0-.562.14-.562.578C.422-.437 1.344.22 2.437.22c1.22 0 2.126-.906 2.126-1.922 0-.813-.641-1.594-1.672-1.813Zm0 0" />
    </symbol>
    <symbol id="F" overflow="visible">
      <path
        d="M2.406-6.594c-.094-.218-.125-.218-.36-.218H.376v.312H.61c.766 0 .782.11.782.469v4.984c0 .266 0 .734-1.016.734V0c.344-.016.828-.031 1.156-.031.328 0 .828.015 1.172.031v-.313c-1.031 0-1.031-.468-1.031-.734v-5.375h.016L4.094-.219c.047.125.093.219.187.219.11 0 .14-.078.188-.188L6.922-6.5v5.719c0 .36-.016.469-.781.469h-.235V0c.36-.031 1.047-.031 1.438-.031.375 0 1.047 0 1.422.031v-.313h-.25c-.766 0-.782-.109-.782-.468v-5.25c0-.36.016-.469.782-.469h.25v-.313H7.078c-.266 0-.266.016-.328.188L4.562-1Zm0 0" />
    </symbol>
    <symbol id="G" overflow="visible">
      <path
        d="M4.688-2.14c0-1.266-.985-2.329-2.188-2.329C1.25-4.469.281-3.375.281-2.14A2.22 2.22 0 0 0 2.484.11c1.204 0 2.204-.984 2.204-2.25ZM2.5-.14c-.438 0-.875-.204-1.14-.672-.25-.438-.25-1.047-.25-1.407 0-.39 0-.922.234-1.36a1.347 1.347 0 0 1 1.14-.671c.438 0 .86.219 1.125.656.266.422.266 1 .266 1.375 0 .36 0 .906-.219 1.344-.234.453-.672.734-1.156.734Zm0 0" />
    </symbol>
    <symbol id="H" overflow="visible">
      <path
        d="M1.719-3.766v-3.156l-1.438.11v.312c.703 0 .781.063.781.563V0h.25c0-.016.079-.156.36-.625.14.234.562.734 1.297.734 1.187 0 2.219-.984 2.219-2.265 0-1.266-.97-2.25-2.11-2.25-.781 0-1.203.468-1.36.64ZM1.75-1.14v-2.046c0-.188 0-.204.11-.36.39-.562.937-.64 1.171-.64.453 0 .813.265 1.047.64.266.406.281.969.281 1.39 0 .36-.015.954-.296 1.407-.22.313-.594.64-1.125.64-.454 0-.813-.234-1.047-.609-.141-.203-.141-.234-.141-.422Zm0 0" />
    </symbol>
    <symbol id="I" overflow="visible">
      <path
        d="m1.766-4.406-1.391.11v.312c.64 0 .734.062.734.546V-.75c0 .438-.109.438-.78.438V0c.312-.016.859-.031 1.093-.031.36 0 .703.015 1.047.031v-.313c-.672 0-.703-.046-.703-.437Zm.03-1.735a.514.514 0 0 0-.515-.53.537.537 0 0 0-.531.53c0 .266.219.532.531.532a.514.514 0 0 0 .516-.532Zm0 0" />
    </symbol>
    <symbol id="J" overflow="visible">
      <path
        d="m1.766-6.922-1.438.11v.312c.703 0 .781.063.781.563V-.75c0 .438-.109.438-.78.438V0c.327-.016.859-.031 1.109-.031s.734.015 1.109.031v-.313c-.672 0-.781 0-.781-.437Zm0 0" />
    </symbol>
    <symbol id="K" overflow="visible">
      <path
        d="M6.188-5.828c.14-.375.406-.656 1.093-.672v-.313c-.312.032-.718.032-.968.032-.297 0-.875-.016-1.141-.032v.313c.516.016.734.266.734.5 0 .078-.031.14-.047.203L4.031-1 2.125-6.031c-.063-.14-.063-.157-.063-.172 0-.297.563-.297.813-.297v-.313c-.36.032-1.047.032-1.422.032-.469 0-.906-.016-1.266-.032v.313c.657 0 .844 0 .985.375L3.484 0c.063.188.11.219.25.219.157 0 .188-.047.235-.188Zm0 0" />
    </symbol>
    <symbol id="h" overflow="visible">
      <use xlink:href="#a" />
    </symbol>
    <symbol id="q" overflow="visible">
      <path
        d="M-6.594-2.406c-.218.094-.218.125-.218.36v1.671h.312v-.234c0-.766.11-.782.469-.782h4.984c.266 0 .734 0 .734 1.016H0a29.345 29.345 0 0 1-.031-1.156c0-.328.015-.828.031-1.172h-.313c0 1.031-.468 1.031-.734 1.031h-5.375v-.016l6.203-2.406C-.094-4.14 0-4.187 0-4.28c0-.11-.078-.14-.188-.188L-6.5-6.922h5.719c.36 0 .469.016.469.781v.235H0c-.031-.36-.031-1.047-.031-1.438 0-.375 0-1.047.031-1.422h-.313v.25c0 .766-.109.782-.468.782h-5.25c-.36 0-.469-.016-.469-.782v-.25h-.313v1.688c0 .266.016.266.188.328L-1-4.562Zm0 0" />
    </symbol>
    <symbol id="r" overflow="visible">
      <path
        d="m-3.875-3.484-.297 1.28c-.156.626-.687 1-1.266 1-.703 0-1.312-.53-1.312-1.312 0-1.656 1.64-1.875 2.078-1.937.063-.016.125-.016.125-.125 0-.125-.047-.125-.234-.125h-2c-.172 0-.25 0-.25.11 0 .062.015.077.14.14l.563.36c-.297.296-.703.702-.703 1.593 0 1.11.875 1.938 1.937 1.938.828 0 1.563-.532 1.828-1.297.032-.11.157-.625.329-1.329.062-.265.14-.562.5-.843.265-.203.593-.313.921-.313.704 0 1.422.5 1.422 1.344 0 .281-.047 1.047-.531 1.578-.547.578-1.172.61-1.531.61-.11.015-.11.093-.11.125 0 .125.079.125.25.125h2c.172 0 .235 0 .235-.11 0-.062-.016-.078-.125-.14-.016 0-.047-.032-.578-.36.343-.312.703-.953.703-1.844 0-1.156-.969-1.953-2.078-1.953-.985 0-1.813.657-2.016 1.485Zm0 0" />
    </symbol>
    <symbol id="s" overflow="visible">
      <path
        d="M-.781-1.36c.36 0 .469.032.469.798v.234H0v-5.75L-2.578-6.5v.25c1.547.25 2.265.484 2.265 2.188v1.328c0 .468-.062.484-.39.484h-2.672v-.89c0-.97.328-1.079 1.172-1.079v-.25h-2.64v.25c.859 0 1.171.11 1.171 1.078v.891h-2.406c-.328 0-.39-.016-.39-.484v-1.282c0-1.53.546-1.796 1.937-1.953v-.25l-2.25.282v5.609h.312v-.234c0-.766.11-.797.469-.797Zm0 0" />
    </symbol>
    <clipPath id="j">
      <path d="M56 12.383h215V98H56Zm0 0" />
    </clipPath>
    <clipPath id="k">
      <path d="M56 86h215v53.402H56Zm0 0" />
    </clipPath>
    <clipPath id="A">
      <path d="M309 12.383h215V111H309Zm0 0" />
    </clipPath>
    <clipPath id="B">
      <path d="M309 83h215v56.406H309Zm0 0" />
    </clipPath>
    <clipPath id="D">
      <path d="M562 12.266h215V112H562Zm0 0" />
    </clipPath>
    <clipPath id="E">
      <path d="M562 89h215v50.293H562Zm0 0" />
    </clipPath>
  </defs>
  <path fill="none" stroke="#d9d9d9" stroke-dasharray="2.989 2.989" stroke-miterlimit="10" stroke-width=".399"
    d="M67.34 139.402V12.382m46.027 127.02V12.382m53.7 127.02V12.382m53.699 127.02V12.382m38.355 127.02V12.382M48.16 114.586H278.3M48.16 82.226H278.3M48.16 49.868H278.3M48.16 17.504H278.3" />
  <path fill="none" stroke="gray" stroke-miterlimit="10" stroke-width=".199"
    d="M67.34 139.402v-4.25m46.027 4.25v-4.25m53.7 4.25v-4.25m53.699 4.25v-4.25m38.355 4.25v-4.25M67.34 12.382v4.25m46.027-4.25v4.25m53.7-4.25v4.25m53.699-4.25v4.25m38.355-4.25v4.25M48.16 114.586h4.254m-4.254-32.36h4.254M48.16 49.868h4.254M48.16 17.504h4.254m225.887 97.082h-4.254m4.254-32.36h-4.254m4.254-32.359h-4.254m4.254-32.363h-4.254" />
  <path fill="none" stroke="#000" stroke-miterlimit="10" stroke-width=".399"
    d="M48.16 139.402V12.382H278.3v127.02Zm0 0" />
  <use xlink:href="#b" x="64.851" y="149.344" />
  <use xlink:href="#c" x="110.877" y="149.344" />
  <use xlink:href="#b" x="162.085" y="149.344" />
  <use xlink:href="#d" x="167.066" y="149.344" />
  <use xlink:href="#e" x="215.783" y="149.344" />
  <use xlink:href="#b" x="220.764" y="149.344" />
  <use xlink:href="#e" x="254.138" y="149.344" />
  <use xlink:href="#f" x="259.119" y="149.344" />
  <use xlink:href="#g" x="26.931" y="117.795" />
  <use xlink:href="#h" x="31.913" y="117.795" />
  <use xlink:href="#g" x="34.68" y="117.795" />
  <use xlink:href="#i" x="39.661" y="117.795" />
  <use xlink:href="#g" x="31.913" y="85.436" />
  <use xlink:href="#h" x="36.894" y="85.436" />
  <use xlink:href="#b" x="39.661" y="85.436" />
  <use xlink:href="#g" x="26.931" y="53.077" />
  <use xlink:href="#h" x="31.913" y="53.077" />
  <use xlink:href="#b" x="34.68" y="53.077" />
  <use xlink:href="#i" x="39.661" y="53.077" />
  <use xlink:href="#g" x="31.913" y="20.717" />
  <use xlink:href="#h" x="36.894" y="20.717" />
  <use xlink:href="#e" x="39.661" y="20.717" />
  <g clip-path="url(#j)">
    <path fill="none" class="unstable_stroke" stroke-miterlimit="10" stroke-width="1.5"
      d="m67.34 85.879 7.672-6.063 7.672-4.753 7.671-5.16 7.672-5.157 7.668-5.965 7.672-4.218 7.672-3.81 7.672-1.69 7.672 25.285 7.672-5.368 7.668-5.917 7.672-5.5 7.671-6.122 7.672-5.75 7.672-6.738 7.672-12.148 7.668-3.836 7.672 45.656 7.672-5.445 7.672-4.457 7.672-2.743 7.671-1.609 7.668 1.297 7.672.621 7.672 1.285" />
  </g>
  <g clip-path="url(#k)">
    <path fill="none" class="stable_stroke" stroke-miterlimit="10" stroke-width="1.5"
      d="m67.34 101.574 7.672 5.797 7.672 3.07 7.671 2.555 7.672-.398 7.668.238 7.672-.895 7.672.594 7.672 2.23 7.672 8.79 7.672.343 7.668-.496 7.672-1.277 7.671.602 7.672-.532 7.672-.754 7.672-.011 7.668.46 7.672 6.926 7.672-1.152 7.672-1.633 7.672-1.98 7.671-2.223 7.668-3.808 7.672-7.204 7.672-13.074" />
  </g>
  <path class="unstable_stroke unstable_fill" stroke-miterlimit="10" stroke-width=".797"
    d="M69.332 85.879a1.993 1.993 0 1 0-3.983.002 1.993 1.993 0 0 0 3.983-.002Zm7.672-6.063a1.99 1.99 0 0 0-1.992-1.992 1.99 1.99 0 0 0-1.992 1.992 1.99 1.99 0 0 0 1.992 1.993 1.99 1.99 0 0 0 1.992-1.993Zm7.672-4.753a1.993 1.993 0 1 0-3.986.001 1.993 1.993 0 0 0 3.986-.001Zm7.672-5.161a1.99 1.99 0 0 0-1.993-1.992 1.99 1.99 0 0 0-1.992 1.992 1.99 1.99 0 0 0 1.992 1.993 1.99 1.99 0 0 0 1.993-1.993Zm7.672-5.156a1.993 1.993 0 1 0-3.983.002 1.993 1.993 0 0 0 3.983-.002Zm7.671-5.965a1.994 1.994 0 0 0-3.988 0 1.994 1.994 0 0 0 3.988 0Zm7.669-4.218a1.993 1.993 0 1 0-3.983.002 1.993 1.993 0 0 0 3.982-.002Zm7.671-3.809a1.99 1.99 0 0 0-1.992-1.992 1.99 1.99 0 0 0-1.992 1.992 1.99 1.99 0 0 0 1.992 1.992 1.99 1.99 0 0 0 1.992-1.992Zm7.672-1.691a1.99 1.99 0 0 0-1.992-1.993 1.99 1.99 0 0 0-1.992 1.993 1.99 1.99 0 0 0 1.992 1.992 1.99 1.99 0 0 0 1.992-1.992Zm7.672 25.285a1.99 1.99 0 0 0-1.992-1.993 1.99 1.99 0 0 0-1.992 1.993 1.99 1.99 0 0 0 1.992 1.992 1.99 1.99 0 0 0 1.992-1.992Zm7.672-5.368a1.996 1.996 0 0 0-1.992-1.996 1.994 1.994 0 0 0 0 3.989 1.996 1.996 0 0 0 1.992-1.993Zm7.672-5.917a1.994 1.994 0 0 0-3.989 0c0 1.097.895 1.992 1.993 1.992a1.996 1.996 0 0 0 1.996-1.992Zm7.668-5.5a1.993 1.993 0 1 0-3.983.002 1.993 1.993 0 0 0 3.983-.002Zm7.672-6.122a1.99 1.99 0 0 0-1.993-1.992 1.993 1.993 0 1 0 1.992 1.992Zm7.671-5.75a1.99 1.99 0 0 0-1.992-1.992 1.99 1.99 0 0 0-1.992 1.992 1.99 1.99 0 0 0 1.992 1.993 1.99 1.99 0 0 0 1.992-1.993Zm7.672-6.738a1.993 1.993 0 1 0-3.986.002 1.993 1.993 0 0 0 3.986-.002Zm7.672-12.148a1.993 1.993 0 1 0-3.986.001 1.993 1.993 0 0 0 3.986-.001Zm7.672-3.836a1.997 1.997 0 0 0-1.996-1.996 1.996 1.996 0 0 0-1.992 1.996c0 1.097.894 1.992 1.992 1.992a1.996 1.996 0 0 0 1.996-1.992Zm7.668 45.656a1.993 1.993 0 1 0-3.983.002 1.993 1.993 0 0 0 3.983-.002Zm7.672-5.445c0-1.102-.89-1.996-1.992-1.996a1.994 1.994 0 0 0 0 3.988 1.993 1.993 0 0 0 1.992-1.992Zm7.672-4.457a1.993 1.993 0 1 0-3.986.001 1.993 1.993 0 0 0 3.986-.001Zm7.672-2.743a1.99 1.99 0 0 0-1.993-1.992 1.99 1.99 0 0 0-1.992 1.992 1.99 1.99 0 0 0 1.993 1.993 1.99 1.99 0 0 0 1.992-1.993Zm7.672-1.609a1.993 1.993 0 1 0-3.986.002 1.993 1.993 0 0 0 3.986-.002Zm7.671 1.297a1.994 1.994 0 0 0-3.988 0 1.994 1.994 0 0 0 3.988 0Zm7.668.622a1.993 1.993 0 1 0-3.986 0 1.993 1.993 0 0 0 3.986 0Zm7.672 1.284a1.99 1.99 0 0 0-1.992-1.992 1.993 1.993 0 1 0 1.992 1.992Zm0 0" />
  <path class="stable_stroke stable_fill" stroke-miterlimit="10" stroke-width=".797"
    d="M65.348 103.566h3.984v-3.984h-3.984Zm7.672 5.797h3.984v-3.984H73.02Zm7.671 3.071h3.985v-3.985H80.69Zm7.672 2.554h3.985v-3.984h-3.985Zm7.672-.398h3.985v-3.985h-3.985Zm7.668.238h3.988v-3.984h-3.988Zm7.672-.894h3.984v-3.985h-3.984Zm7.672.593h3.984v-3.984h-3.984Zm7.672 2.231h3.984v-3.988h-3.984Zm7.671 8.789h3.985v-3.984h-3.984Zm7.673.343h3.984v-3.984h-3.984Zm7.667-.495h3.989v-3.985h-3.989Zm7.672-1.278h3.985v-3.984h-3.985Zm7.672.602h3.985v-3.985h-3.985Zm7.672-.531h3.984v-3.985h-3.984Zm7.672-.754h3.984v-3.985h-3.984Zm7.672-.012h3.984v-3.984h-3.984Zm7.668.461h3.988v-3.985h-3.988Zm7.672 6.93h3.984v-3.989h-3.984Zm7.672-1.157h3.984v-3.984h-3.984Zm7.671-1.633h3.985v-3.984h-3.985Zm7.672-1.98h3.985v-3.984h-3.985Zm7.672-2.223h3.985v-3.984h-3.985Zm7.668-3.808h3.988v-3.985h-3.988Zm7.672-7.203h3.984v-3.989h-3.984Zm7.672-13.071h3.984V95.75h-3.984Zm0 0" />
  <use xlink:href="#l" x="151.109" y="162.992" />
  <use xlink:href="#m" x="157.336" y="162.992" />
  <use xlink:href="#n" x="162.038" y="162.992" />
  <use xlink:href="#o" x="167.017" y="162.992" />
  <use xlink:href="#p" x="171.445" y="162.992" />
  <use xlink:href="#q" x="20.091" y="86.617" />
  <use xlink:href="#r" x="20.091" y="77.484" />
  <use xlink:href="#s" x="20.091" y="71.949" />
  <path fill="#fff" d="M83.879 187.633h158.707v-16.274H83.879Zm0 0" />
  <path fill="none" class="unstable_stroke" stroke-miterlimit="10" stroke-width="1.5" d="M87.266 179.492h17.007" />
  <path class="unstable_stroke unstable_fill" stroke-miterlimit="10" stroke-width=".797"
    d="M97.762 179.492a1.993 1.993 0 1 0-1.992 1.996 1.994 1.994 0 0 0 1.992-1.996Zm0 0" />
  <use xlink:href="#t" x="106.665" y="182.151" />
  <use xlink:href="#o" x="113.998" y="182.151" />
  <use xlink:href="#u" x="118.426" y="182.151" />
  <use xlink:href="#v" x="122.355" y="182.151" />
  <use xlink:href="#o" x="129.827" y="182.151" />
  <use xlink:href="#w" x="134.254" y="182.151" />
  <use xlink:href="#i" x="138.129" y="182.151" />
  <use xlink:href="#f" x="143.11" y="182.151" />
  <path fill="none" class="stable_stroke" stroke-miterlimit="10" stroke-width="1.5" d="M150.484 179.492h17.008" />
  <path class="stable_stroke stable_fill" stroke-miterlimit="10" stroke-width=".797"
    d="M156.996 181.488h3.984V177.5h-3.984Zm0 0" />
  <use xlink:href="#x" x="169.883" y="182.151" />
  <use xlink:href="#n" x="175.418" y="182.151" />
  <use xlink:href="#y" x="180.676" y="182.151" />
  <use xlink:href="#z" x="188.978" y="182.151" />
  <use xlink:href="#t" x="196.169" y="182.151" />
  <use xlink:href="#o" x="203.503" y="182.151" />
  <use xlink:href="#u" x="207.93" y="182.151" />
  <use xlink:href="#v" x="211.859" y="182.151" />
  <use xlink:href="#o" x="219.331" y="182.151" />
  <use xlink:href="#w" x="223.769" y="182.151" />
  <use xlink:href="#i" x="227.643" y="182.151" />
  <use xlink:href="#f" x="232.624" y="182.151" />
  <path fill="none" stroke="#d9d9d9" stroke-dasharray="2.989 2.989" stroke-miterlimit="10" stroke-width=".399"
    d="M320.566 139.406V12.383m46.028 127.023V12.383m53.699 127.023V12.383m53.7 127.023V12.383m38.355 127.023V12.383M301.39 132.434h230.137M301.391 95.316h230.136M301.391 58.2h230.136M301.391 21.082h230.136" />
  <path fill="none" stroke="gray" stroke-miterlimit="10" stroke-width=".199"
    d="M320.566 139.406v-4.254m46.028 4.254v-4.254m53.699 4.254v-4.254m53.7 4.254v-4.254m38.355 4.254v-4.254M320.566 12.382v4.255m46.028-4.254v4.254m53.699-4.254v4.254m53.7-4.254v4.254m38.355-4.254v4.254M301.39 132.434h4.25m-4.25-37.118h4.25M301.39 58.2h4.25m-4.25-37.117h4.25m225.887 111.352h-4.25m4.25-37.118h-4.25m4.25-37.117h-4.25m4.25-37.117h-4.25" />
  <path fill="none" stroke="#000" stroke-miterlimit="10" stroke-width=".399"
    d="M301.39 139.406V12.383h230.137v127.023Zm0 0" />
  <use xlink:href="#b" x="318.077" y="149.344" />
  <use xlink:href="#c" x="364.104" y="149.344" />
  <use xlink:href="#b" x="415.311" y="149.344" />
  <use xlink:href="#d" x="420.292" y="149.344" />
  <use xlink:href="#e" x="469.009" y="149.344" />
  <use xlink:href="#b" x="473.99" y="149.344" />
  <use xlink:href="#e" x="507.365" y="149.344" />
  <use xlink:href="#f" x="512.346" y="149.344" />
  <use xlink:href="#g" x="292.888" y="135.642" />
  <use xlink:href="#g" x="285.139" y="98.526" />
  <use xlink:href="#h" x="290.12" y="98.526" />
  <use xlink:href="#e" x="292.888" y="98.526" />
  <use xlink:href="#g" x="285.139" y="61.409" />
  <use xlink:href="#h" x="290.12" y="61.409" />
  <use xlink:href="#d" x="292.888" y="61.409" />
  <use xlink:href="#g" x="285.139" y="24.292" />
  <use xlink:href="#h" x="290.12" y="24.292" />
  <use xlink:href="#f" x="292.888" y="24.292" />
  <g clip-path="url(#A)">
    <path fill="none" class="unstable_stroke" stroke-miterlimit="10" stroke-width="1.5"
      d="m320.566 99.031 7.672-4.254 7.672-4.945 7.672-2.562 7.672-6.305 7.672-3.91 7.668 3.965 7.672-8.774 7.671-6.027 7.672 16.617 7.672-.586 7.672-1.664 7.668-2.39 7.672-2.473 7.672-1.957 7.672-9.59 7.672-13.696 7.671-2.64 7.668 20.043 7.672-6.18 7.672-6.09 7.672-5.09 7.672-5.77 7.672-4.976 7.668-6.382 7.672-10.426" />
  </g>
  <g clip-path="url(#B)">
    <path fill="none" class="stable_stroke" stroke-miterlimit="10" stroke-width="1.5"
      d="m320.566 126.074 7.672.219 7.672.664 7.672-.184 7.672.598 7.672-.121 7.668-.168 7.672.074 7.671.172 7.672 1.41 7.672.082 7.672-.675 7.668-.633 7.672-.387 7.672-.234 7.672-.54 7.672-.437 7.671-.648 7.668 1.687 7.672-.703 7.672-1.004 7.672-1.613 7.672-2.813 7.672-6.879 7.668-8.671 7.672-10.23" />
  </g>
  <path class="unstable_stroke unstable_fill" stroke-miterlimit="10" stroke-width=".797"
    d="M322.563 99.031a1.994 1.994 0 0 0-3.989 0 1.994 1.994 0 0 0 3.988 0Zm7.667-4.254a1.993 1.993 0 1 0-3.986.002 1.993 1.993 0 0 0 3.986-.002Zm7.672-4.945a1.993 1.993 0 1 0-3.986.002 1.993 1.993 0 0 0 3.986-.002Zm7.672-2.562a1.99 1.99 0 0 0-1.992-1.993 1.99 1.99 0 0 0-1.992 1.993 1.99 1.99 0 0 0 1.992 1.992 1.99 1.99 0 0 0 1.992-1.992Zm7.672-6.305a1.993 1.993 0 0 0-3.984 0c0 1.101.89 1.996 1.992 1.996a1.996 1.996 0 0 0 1.992-1.996Zm7.672-3.91a1.994 1.994 0 0 0-3.988 0c0 1.097.894 1.992 1.996 1.992a1.996 1.996 0 0 0 1.992-1.992Zm7.668 3.965a1.993 1.993 0 1 0-3.983.002 1.993 1.993 0 0 0 3.983-.002Zm7.672-8.774c0-1.101-.89-1.996-1.992-1.996a1.996 1.996 0 0 0-1.993 1.996 1.993 1.993 0 0 0 3.984 0Zm7.672-6.027a1.99 1.99 0 0 0-1.993-1.992 1.99 1.99 0 0 0-1.992 1.992 1.99 1.99 0 0 0 1.993 1.992 1.99 1.99 0 0 0 1.992-1.992Zm7.672 16.617a1.993 1.993 0 1 0-3.986.002 1.993 1.993 0 0 0 3.986-.002Zm7.671-.586a1.993 1.993 0 0 0-3.984 0c0 1.102.89 1.996 1.992 1.996a1.996 1.996 0 0 0 1.992-1.996Zm7.672-1.664a1.994 1.994 0 0 0-3.988 0c0 1.098.895 1.992 1.996 1.992a1.996 1.996 0 0 0 1.992-1.992Zm7.668-2.391a1.993 1.993 0 1 0-3.983.002 1.993 1.993 0 0 0 3.983-.002Zm7.672-2.472a1.993 1.993 0 1 0-3.986.001 1.993 1.993 0 0 0 3.986-.001Zm7.672-1.957a1.99 1.99 0 0 0-1.992-1.993 1.99 1.99 0 0 0-1.992 1.993 1.99 1.99 0 0 0 1.992 1.992 1.99 1.99 0 0 0 1.992-1.992Zm7.672-9.59a1.99 1.99 0 0 0-1.992-1.992 1.993 1.993 0 1 0 1.992 1.992ZM445.3 50.48a1.993 1.993 0 1 0-3.985.002 1.993 1.993 0 0 0 3.986-.002Zm7.673-2.64a1.996 1.996 0 0 0-1.993-1.992 1.996 1.996 0 0 0-1.996 1.992 1.994 1.994 0 0 0 3.989 0Zm7.667 20.043a1.993 1.993 0 1 0-1.992 1.996 1.994 1.994 0 0 0 1.993-1.996Zm7.673-6.18a1.995 1.995 0 0 0-1.993-1.996 1.996 1.996 0 0 0-1.992 1.996 1.993 1.993 0 0 0 3.984 0Zm7.671-6.09a1.99 1.99 0 0 0-1.992-1.992A1.99 1.99 0 0 0 472 55.613a1.99 1.99 0 0 0 1.992 1.992 1.99 1.99 0 0 0 1.992-1.992Zm7.672-5.09a1.99 1.99 0 0 0-1.992-1.992 1.993 1.993 0 1 0 1.992 1.992Zm7.672-5.769a1.993 1.993 0 1 0-3.986.002 1.993 1.993 0 0 0 3.986-.002ZM499 39.777a1.996 1.996 0 0 0-1.992-1.992 1.996 1.996 0 0 0-1.996 1.992 1.994 1.994 0 0 0 3.988 0Zm7.668-6.382a1.993 1.993 0 1 0-3.983.002 1.993 1.993 0 0 0 3.983-.002Zm7.672-10.426a1.993 1.993 0 1 0-3.986.001 1.993 1.993 0 0 0 3.986-.001Zm0 0" />
  <path class="stable_stroke stable_fill" stroke-miterlimit="10" stroke-width=".797"
    d="M318.574 128.066h3.988v-3.984h-3.988Zm7.672.219h3.984v-3.984h-3.984Zm7.672.665h3.984v-3.985h-3.984Zm7.672-.184h3.984v-3.985h-3.984Zm7.672.597h3.984v-3.984h-3.984Zm7.668-.121h3.988v-3.984h-3.988Zm7.672-.168h3.984v-3.984h-3.984Zm7.671.074h3.985v-3.984h-3.985Zm7.672.172h3.985v-3.984h-3.985Zm7.672 1.414h3.985v-3.988h-3.985Zm7.673.079h3.983v-3.985h-3.984Zm7.667-.676h3.988v-3.985h-3.988Zm7.672-.633h3.984v-3.984h-3.984Zm7.671-.383h3.985v-3.988h-3.984Zm7.673-.234h3.984v-3.989h-3.984Zm7.672-.543h3.984v-3.985h-3.984Zm7.671-.438h3.985v-3.988h-3.985Zm7.668-.648h3.989v-3.988h-3.989Zm7.672 1.687h3.985v-3.984h-3.985Zm7.672-.703h3.985v-3.984h-3.985Zm7.672-1.004h3.984v-3.984H472Zm7.672-1.613h3.984v-3.984h-3.984Zm7.672-2.813h3.984v-3.984h-3.984Zm7.668-6.878H499v-3.985h-3.988Zm7.672-8.672h3.984v-3.985h-3.984Zm7.671-10.231h3.985v-3.984h-3.985Zm0 0" />
  <use xlink:href="#l" x="404.336" y="162.992" />
  <use xlink:href="#m" x="410.563" y="162.992" />
  <use xlink:href="#n" x="415.265" y="162.992" />
  <use xlink:href="#o" x="420.244" y="162.992" />
  <use xlink:href="#p" x="424.672" y="162.992" />
  <path fill="#fff" d="M337.105 187.633h158.707v-16.274H337.106Zm0 0" />
  <path fill="none" class="unstable_stroke" stroke-miterlimit="10" stroke-width="1.5" d="M340.492 179.492H357.5" />
  <path class="unstable_stroke unstable_fill" stroke-miterlimit="10" stroke-width="1.5"
    d="M350.988 179.492a1.993 1.993 0 1 0-1.992 1.996 1.994 1.994 0 0 0 1.992-1.996Zm0 0" />
  <use xlink:href="#t" x="359.891" y="182.151" />
  <use xlink:href="#o" x="367.224" y="182.151" />
  <use xlink:href="#u" x="371.652" y="182.151" />
  <use xlink:href="#v" x="375.581" y="182.151" />
  <use xlink:href="#o" x="383.053" y="182.151" />
  <use xlink:href="#w" x="387.48" y="182.151" />
  <use xlink:href="#i" x="391.355" y="182.151" />
  <use xlink:href="#f" x="396.336" y="182.151" />
  <path fill="none" class="stable_stroke" stroke-miterlimit="10" stroke-width="1.5" d="M403.71 179.492h17.009" />
  <path class="stable_stroke stable_fill" stroke-miterlimit="10" stroke-width=".797"
    d="M410.223 181.488h3.984V177.5h-3.984Zm0 0" />
  <use xlink:href="#x" x="423.109" y="182.151" />
  <use xlink:href="#n" x="428.644" y="182.151" />
  <use xlink:href="#y" x="433.902" y="182.151" />
  <use xlink:href="#z" x="442.204" y="182.151" />
  <use xlink:href="#t" x="449.395" y="182.151" />
  <use xlink:href="#o" x="456.729" y="182.151" />
  <use xlink:href="#u" x="461.156" y="182.151" />
  <use xlink:href="#v" x="465.095" y="182.151" />
  <use xlink:href="#o" x="472.567" y="182.151" />
  <use xlink:href="#w" x="476.995" y="182.151" />
  <use xlink:href="#i" x="480.869" y="182.151" />
  <use xlink:href="#f" x="485.85" y="182.151" />
  <path fill="none" stroke="#d9d9d9" stroke-dasharray="2.989 2.989" stroke-miterlimit="10" stroke-width=".399"
    d="M573.797 139.293V12.266m63.926 127.027V12.266m76.71 127.027V12.266m51.145 127.027V12.266m-210.961 94.336h230.14m-230.14-45.055h230.14m-230.14-45.055h230.14" />
  <path fill="none" stroke="gray" stroke-miterlimit="10" stroke-width=".199"
    d="M573.797 139.293v-4.254m63.926 4.254v-4.254m76.71 4.254v-4.254m51.145 4.254v-4.254M573.797 12.266v4.25m63.926-4.25v4.25m76.71-4.25v4.25m51.145-4.25v4.25m-210.961 90.086h4.25m-4.25-45.055h4.25m-4.25-45.055h4.25m225.89 90.11h-4.253m4.254-45.055h-4.254m4.254-45.055h-4.254" />
  <path fill="none" stroke="#000" stroke-miterlimit="10" stroke-width=".399"
    d="M554.617 139.293V12.266h230.14v127.027Zm0 0" />
  <use xlink:href="#b" x="571.304" y="149.232" />
  <use xlink:href="#f" x="635.23" y="149.232" />
  <use xlink:href="#b" x="709.452" y="149.232" />
  <use xlink:href="#e" x="714.433" y="149.232" />
  <use xlink:href="#b" x="760.593" y="149.232" />
  <use xlink:href="#f" x="765.574" y="149.232" />
  <use xlink:href="#g" x="538.366" y="109.813" />
  <use xlink:href="#h" x="543.347" y="109.813" />
  <use xlink:href="#b" x="546.114" y="109.813" />
  <use xlink:href="#g" x="538.366" y="64.758" />
  <use xlink:href="#h" x="543.347" y="64.758" />
  <use xlink:href="#e" x="546.114" y="64.758" />
  <use xlink:href="#g" x="538.366" y="19.703" />
  <use xlink:href="#h" x="543.347" y="19.703" />
  <use xlink:href="#C" x="546.114" y="19.703" />
  <g clip-path="url(#D)">
    <path fill="none" class="unstable_stroke" stroke-miterlimit="10" stroke-width="1.5"
      d="m573.797 99.898 12.785-11.152 12.785-14.812 12.785-6.512 12.785-21.035 12.786-23.535 12.785 45.914 12.785-3.082 12.785-13.122 12.785-6.765 12.785 7.875 12.786 3.07 12.785-7.683 12.789 4.21 12.785-10.82 12.785-11.012" />
  </g>
  <g clip-path="url(#E)">
    <path fill="none" class="stable_stroke" stroke-miterlimit="10" stroke-width="1.5"
      d="m573.797 101.48 12.785 4.336 12.785 12.864 12.785-17.184 12.785 10.918 12.786 3.137 12.785-13.09 12.785 9.621 12.785 1.457 12.785 1.742 12.785-14.922 12.786 18.668 12.785 2.371 12.789-15.171 12.785 18.996 12.785 3.484" />
  </g>
  <path class="unstable_stroke unstable_fill" stroke-miterlimit="10" stroke-width=".797"
    d="M575.79 99.898a1.996 1.996 0 0 0-1.993-1.992 1.996 1.996 0 0 0-1.996 1.992c0 1.102.894 1.997 1.996 1.997a1.996 1.996 0 0 0 1.992-1.997Zm12.784-11.152a1.993 1.993 0 1 0-3.986.002 1.993 1.993 0 0 0 3.986-.002Zm12.786-14.812a1.993 1.993 0 0 0-3.984 0 1.993 1.993 0 0 0 1.991 1.996 1.996 1.996 0 0 0 1.992-1.996Zm12.785-6.512a1.993 1.993 0 1 0-3.986.002 1.993 1.993 0 0 0 3.986-.002Zm12.785-21.035a1.993 1.993 0 1 0-3.986.001 1.993 1.993 0 0 0 3.986-.001Zm12.785-23.535a1.99 1.99 0 0 0-1.992-1.993 1.99 1.99 0 0 0-1.993 1.993 1.99 1.99 0 0 0 1.993 1.992 1.99 1.99 0 0 0 1.992-1.992ZM652.5 68.766a1.993 1.993 0 1 0-1.992 1.996 1.994 1.994 0 0 0 1.992-1.996Zm12.785-3.082a1.993 1.993 0 1 0-3.986.001 1.993 1.993 0 0 0 3.986-.001Zm12.785-13.122a1.99 1.99 0 0 0-1.992-1.992 1.99 1.99 0 0 0-1.992 1.992 1.99 1.99 0 0 0 1.992 1.993 1.99 1.99 0 0 0 1.992-1.993Zm12.785-6.765a1.993 1.993 0 1 0-3.983.002 1.993 1.993 0 0 0 3.983-.002Zm12.785 7.875a1.993 1.993 0 1 0-3.985.002 1.993 1.993 0 0 0 3.986-.002Zm12.79 3.07a1.996 1.996 0 0 0-1.996-1.992 1.993 1.993 0 0 0 0 3.984c1.101 0 1.996-.89 1.996-1.992Zm12.785-7.683a1.994 1.994 0 0 0-3.988 0 1.994 1.994 0 0 0 3.988 0ZM742 53.27a1.994 1.994 0 0 0-3.988 0c0 1.097.894 1.992 1.996 1.992A1.996 1.996 0 0 0 742 53.27Zm12.785-10.82a1.993 1.993 0 1 0-3.986 0 1.993 1.993 0 0 0 3.986 0Zm12.785-11.013a1.993 1.993 0 1 0-3.986.002 1.993 1.993 0 0 0 3.986-.002Zm0 0" />
  <path class="stable_stroke stable_fill" stroke-miterlimit="10" stroke-width=".797"
    d="M571.8 103.473h3.99v-3.985h-3.99Zm12.79 4.336h3.984v-3.985h-3.984Zm12.785 12.863h3.984v-3.985h-3.984Zm12.785-17.184h3.985v-3.984h-3.985Zm12.785 10.922h3.985v-3.988h-3.985Zm12.785 3.133h3.985v-3.988h-3.985Zm12.786-13.09h3.984v-3.984h-3.984Zm12.784 9.621h3.985v-3.984h-3.984Zm12.786 1.457h3.984v-3.984h-3.984Zm12.785 1.742h3.984v-3.984h-3.984Zm12.785-14.921h3.985v-3.985h-3.985Zm12.785 18.668h3.985v-3.989h-3.985Zm12.786 2.37h3.988v-3.984h-3.988Zm12.785-15.171H742v-3.985h-3.988Zm12.788 18.996h3.985v-3.985h-3.984Zm12.786 3.485h3.984v-3.985h-3.984Zm0 0" />
  <use xlink:href="#l" x="657.563" y="162.88" />
  <use xlink:href="#m" x="663.79" y="162.88" />
  <use xlink:href="#n" x="668.492" y="162.88" />
  <use xlink:href="#o" x="673.471" y="162.88" />
  <use xlink:href="#p" x="677.899" y="162.88" />
  <path fill="#fff" d="M573.922 187.633h191.527V171.25H573.922Zm0 0" />
  <path fill="none" class="unstable_stroke" stroke-miterlimit="10" stroke-width="1.5" d="M577.309 179.438h17.007" />
  <path class="unstable_stroke unstable_fill" stroke-miterlimit="10" stroke-width=".797"
    d="M587.805 179.438a1.993 1.993 0 1 0-3.986.001 1.993 1.993 0 0 0 3.986-.001Zm0 0" />
  <use xlink:href="#F" x="596.708" y="182.151" />
  <use xlink:href="#G" x="605.841" y="182.151" />
  <use xlink:href="#H" x="610.822" y="182.151" />
  <use xlink:href="#I" x="616.357" y="182.151" />
  <use xlink:href="#J" x="619.125" y="182.151" />
  <use xlink:href="#o" x="621.892" y="182.151" />
  <use xlink:href="#v" x="626.32" y="182.151" />
  <use xlink:href="#o" x="633.792" y="182.151" />
  <use xlink:href="#w" x="638.219" y="182.151" />
  <use xlink:href="#K" x="642.094" y="182.151" />
  <use xlink:href="#e" x="649.566" y="182.151" />
  <path fill="none" class="stable_stroke" stroke-miterlimit="10" stroke-width="1.5" d="M656.938 179.438h17.007" />
  <path class="stable_stroke stable_fill" stroke-miterlimit="10" stroke-width=".797"
    d="M663.45 181.43h3.984v-3.985h-3.985Zm0 0" />
  <use xlink:href="#x" x="676.337" y="182.151" />
  <use xlink:href="#n" x="681.872" y="182.151" />
  <use xlink:href="#y" x="687.13" y="182.151" />
  <use xlink:href="#z" x="695.432" y="182.151" />
  <use xlink:href="#F" x="702.623" y="182.151" />
  <use xlink:href="#G" x="711.756" y="182.151" />
  <use xlink:href="#H" x="716.737" y="182.151" />
  <use xlink:href="#I" x="722.273" y="182.151" />
  <use xlink:href="#J" x="725.04" y="182.151" />
  <use xlink:href="#o" x="727.808" y="182.151" />
  <use xlink:href="#v" x="732.235" y="182.151" />
  <use xlink:href="#o" x="739.707" y="182.151" />
  <use xlink:href="#w" x="744.134" y="182.151" />
  <use xlink:href="#K" x="748.009" y="182.151" />
  <use xlink:href="#e" x="755.481" y="182.151" />
</svg>