<svg xmlns="http://www.w3.org/2000/svg" xmlns:xlink="http://www.w3.org/1999/xlink" viewBox="20 0 320 161.24">
  <style>
    .original {
      stroke: #67aedf;
      stroke-width: 1.5;
    }

    .smoothed {
      stroke: #f33;
      stroke-width: 1.5;
    }
  </style>
  <defs>
    <symbol id="prefix__a" overflow="visible">
      <path
        d="M6.563-2.297c.171 0 .359 0 .359-.203 0-.188-.188-.188-.36-.188h-5.39c-.172 0-.344 0-.344.188 0 .203.172.203.344.203zm0 0" />
    </symbol>
    <symbol id="prefix__b" overflow="visible">
      <path
        d="M2.938-1.64v.859c0 .36-.032.469-.766.469h-.203V0c.406-.031.922-.031 1.343-.031.422 0 .938 0 1.36.031v-.313h-.219c-.734 0-.75-.109-.75-.468v-.86h.985v-.312h-.985v-4.531c0-.204 0-.266-.172-.266-.078 0-.11 0-.187.125L.28-1.953v.312zm.046-.313H.563l2.421-3.719zm0 0" />
    </symbol>
    <symbol id="prefix__c" overflow="visible">
      <path
        d="M2.89-3.516c.813-.265 1.391-.953 1.391-1.75 0-.812-.875-1.375-1.828-1.375-1 0-1.765.594-1.765 1.36 0 .328.218.515.515.515.297 0 .5-.218.5-.515 0-.485-.469-.485-.61-.485.298-.5.954-.625 1.313-.625.422 0 .969.22.969 1.11 0 .125-.031.703-.281 1.14-.297.485-.64.516-.89.516a3.29 3.29 0 01-.392.031c-.078.016-.14.031-.14.125 0 .11.062.11.234.11h.438c.812 0 1.187.671 1.187 1.656 0 1.36-.687 1.64-1.125 1.64-.437 0-1.187-.171-1.531-.75.344.047.656-.171.656-.546a.537.537 0 00-.547-.563c-.25 0-.562.14-.562.578C.422-.437 1.344.22 2.437.22c1.22 0 2.126-.906 2.126-1.922 0-.813-.641-1.594-1.672-1.813zm0 0" />
    </symbol>
    <symbol id="prefix__d" overflow="visible">
      <path
        d="M1.266-.766l1.062-1.03c1.547-1.376 2.14-1.907 2.14-2.907 0-1.14-.89-1.938-2.109-1.938C1.234-6.64.5-5.719.5-4.828c0 .547.5.547.531.547.172 0 .516-.11.516-.532a.513.513 0 00-.531-.515c-.079 0-.094 0-.125.016.218-.657.765-1.016 1.343-1.016.907 0 1.329.812 1.329 1.625 0 .797-.485 1.578-1.047 2.203L.609-.375C.5-.265.5-.235.5 0h3.703l.266-1.734h-.235C4.172-1.438 4.11-1 4-.844c-.063.078-.719.078-.938.078zm0 0" />
    </symbol>
    <symbol id="prefix__e" overflow="visible">
      <path
        d="M2.938-6.375c0-.25 0-.266-.235-.266C2.078-6 1.203-6 .891-6v.313c.203 0 .78 0 1.296-.266v5.172c0 .36-.03.469-.921.469H.953V0c.344-.031 1.203-.031 1.61-.031.39 0 1.265 0 1.609.031v-.313h-.313c-.906 0-.921-.109-.921-.468zm0 0" />
    </symbol>
    <symbol id="prefix__f" overflow="visible">
      <path
        d="M4.578-3.188c0-.796-.047-1.593-.39-2.328C3.733-6.484 2.905-6.64 2.5-6.64c-.61 0-1.328.266-1.75 1.188-.313.687-.36 1.469-.36 2.266 0 .75.032 1.64.454 2.406a1.83 1.83 0 001.64 1c.532 0 1.297-.203 1.735-1.157.312-.687.36-1.468.36-2.25zM2.484 0c-.39 0-.984-.25-1.156-1.203-.11-.594-.11-1.516-.11-2.11 0-.64 0-1.296.079-1.828.187-1.187.937-1.28 1.187-1.28.329 0 .985.187 1.172 1.171.11.563.11 1.313.11 1.938 0 .75 0 1.421-.11 2.062C3.5-.297 2.937 0 2.484 0zm0 0" />
    </symbol>
    <symbol id="prefix__o" overflow="visible">
      <path
        d="M7.188-3.375c0-2.031-1.5-3.656-3.313-3.656-1.797 0-3.313 1.593-3.313 3.656C.563-1.328 2.095.219 3.876.219c1.813 0 3.313-1.578 3.313-3.594zM3.874-.047c-.953 0-2.297-.875-2.297-3.469 0-2.578 1.469-3.265 2.297-3.265.86 0 2.281.703 2.281 3.265 0 2.641-1.36 3.47-2.281 3.47zm0 0" />
    </symbol>
    <symbol id="prefix__p" overflow="visible">
      <path
        d="M1.672-3.313v-1.093l-1.39.11v.312c.702 0 .78.062.78.562V-.75c0 .438-.109.438-.78.438V0c.39-.016.859-.031 1.14-.031.39 0 .86 0 1.266.031v-.313h-.22c-.734 0-.75-.109-.75-.468v-1.531c0-.985.423-1.876 1.173-1.876.062 0 .093 0 .109.016-.031 0-.234.125-.234.39 0 .266.218.423.437.423a.421.421 0 00.422-.438c0-.312-.313-.61-.734-.61-.735 0-1.094.673-1.22 1.095zm0 0" />
    </symbol>
    <symbol id="prefix__q" overflow="visible">
      <path
        d="M1.766-4.406l-1.391.11v.312c.64 0 .734.062.734.546V-.75c0 .438-.109.438-.78.438V0c.312-.016.859-.031 1.093-.031.36 0 .703.015 1.047.031v-.313c-.672 0-.703-.046-.703-.437zm.03-1.735a.514.514 0 00-.515-.53.537.537 0 00-.531.53c0 .266.219.532.531.532a.514.514 0 00.516-.532zm0 0" />
    </symbol>
    <symbol id="prefix__r" overflow="visible">
      <path
        d="M2.219-1.719c-.875 0-.875-1-.875-1.218 0-.266.015-.594.156-.844.078-.11.313-.39.719-.39.86 0 .86.984.86 1.218 0 .265 0 .594-.157.844-.078.109-.313.39-.703.39zm-1.156.39c0-.03 0-.265.156-.468.39.281.812.313 1 .313.922 0 1.61-.688 1.61-1.454 0-.374-.157-.734-.407-.968.36-.344.719-.39.89-.39.032 0 .079 0 .11.015-.11.031-.172.14-.172.265 0 .172.14.282.297.282a.28.28 0 00.281-.297c0-.172-.11-.485-.5-.485-.203 0-.64.063-1.062.47a1.652 1.652 0 00-1.047-.36c-.938 0-1.625.687-1.625 1.453 0 .437.219.812.469 1.031-.125.14-.313.469-.313.828 0 .313.14.688.453.89-.61.157-.922.595-.922.985 0 .719.985 1.266 2.203 1.266 1.172 0 2.204-.5 2.204-1.281 0-.344-.125-.86-.641-1.141-.531-.266-1.11-.266-1.719-.266-.25 0-.672 0-.75-.015-.312-.047-.516-.344-.516-.672zM2.5 1.829C1.484 1.828.797 1.312.797.781c0-.453.375-.828.812-.844h.594c.86 0 1.969 0 1.969.844 0 .547-.703 1.047-1.672 1.047zm0 0" />
    </symbol>
    <symbol id="prefix__s" overflow="visible">
      <path
        d="M1.094-3.422V-.75c0 .438-.11.438-.782.438V0c.36-.016.86-.031 1.141-.031.25 0 .766.015 1.11.031v-.313c-.672 0-.782 0-.782-.437v-1.844c0-1.031.719-1.594 1.344-1.594.64 0 .75.532.75 1.11V-.75c0 .438-.11.438-.781.438V0c.344-.016.86-.031 1.125-.031.25 0 .781.015 1.11.031v-.313c-.516 0-.766 0-.766-.296v-1.907c0-.859 0-1.156-.313-1.515-.14-.172-.469-.375-1.047-.375-.734 0-1.203.422-1.484 1.047v-1.047l-1.407.11v.312c.704 0 .782.062.782.562zm0 0" />
    </symbol>
    <symbol id="prefix__t" overflow="visible">
      <path
        d="M3.313-.75c.046.39.312.813.78.813.22 0 .829-.141.829-.954v-.562h-.25v.562c0 .579-.25.641-.36.641-.328 0-.375-.453-.375-.5v-1.984c0-.422 0-.813-.359-1.188-.39-.39-.89-.547-1.36-.547-.827 0-1.515.469-1.515 1.125 0 .297.203.469.469.469a.435.435 0 00.453-.453c0-.125-.047-.453-.516-.453.282-.36.766-.469 1.079-.469.5 0 1.062.39 1.062 1.281v.36c-.516.03-1.203.062-1.828.359-.75.344-1 .86-1 1.297 0 .812.969 1.062 1.594 1.062.656 0 1.109-.406 1.296-.859zM3.25-2.39v1c0 .937-.719 1.28-1.172 1.28-.484 0-.89-.343-.89-.843 0-.547.421-1.375 2.062-1.438zm0 0" />
    </symbol>
    <symbol id="prefix__u" overflow="visible">
      <path
        d="M1.766-6.922l-1.438.11v.312c.703 0 .781.063.781.563V-.75c0 .438-.109.438-.78.438V0c.327-.016.859-.031 1.109-.031s.734.015 1.109.031v-.313c-.672 0-.781 0-.781-.437zm0 0" />
    </symbol>
    <symbol id="prefix__v" overflow="visible">
      <path
        d="M6.64-6.75H.548L.359-4.5h.25C.75-6.11.891-6.438 2.406-6.438c.172 0 .438 0 .531.016.22.047.22.156.22.375V-.78c0 .328 0 .469-1.048.469h-.406V0c.406-.031 1.422-.031 1.89-.031.454 0 1.485 0 1.891.031v-.313h-.406c-1.047 0-1.047-.14-1.047-.468v-5.266c0-.187 0-.328.188-.375.11-.016.375-.016.562-.016 1.516 0 1.657.329 1.797 1.938h.25zm0 0" />
    </symbol>
    <symbol id="prefix__w" overflow="visible">
      <path
        d="M6.188-5.828c.14-.375.406-.656 1.093-.672v-.313c-.312.032-.718.032-.968.032-.297 0-.875-.016-1.141-.032v.313c.516.016.734.266.734.5 0 .078-.031.14-.047.203L4.031-1 2.125-6.031c-.063-.14-.063-.157-.063-.172 0-.297.563-.297.813-.297v-.313c-.36.032-1.047.032-1.422.032-.469 0-.906-.016-1.266-.032v.313c.657 0 .844 0 .985.375L3.484 0c.063.188.11.219.25.219.157 0 .188-.047.235-.188zm0 0" />
    </symbol>
    <symbol id="prefix__x" overflow="visible">
      <path d="M2.75-1.86v-.577H.11v.578zm0 0" />
    </symbol>
    <symbol id="prefix__y" overflow="visible">
      <path
        d="M2.078-1.938c.219.047 1.031.204 1.031.922 0 .5-.343.907-1.125.907-.843 0-1.203-.563-1.39-1.422-.031-.125-.031-.157-.14-.157-.126 0-.126.063-.126.235v1.328c0 .172 0 .234.11.234C.483.11.5.094.688-.094.703-.109.703-.125.89-.312c.437.406.89.421 1.093.421 1.141 0 1.61-.671 1.61-1.39 0-.516-.297-.828-.422-.938-.328-.328-.719-.406-1.14-.484-.563-.11-1.22-.235-1.22-.813 0-.359.25-.765 1.11-.765 1.094 0 1.156.906 1.172 1.203 0 .094.094.094.11.094.14 0 .14-.047.14-.235v-1.015c0-.157 0-.235-.11-.235-.046 0-.078 0-.203.125-.031.032-.125.125-.172.157-.375-.282-.78-.282-.937-.282-1.219 0-1.594.672-1.594 1.235 0 .343.156.625.422.843.328.25.61.313 1.328.454zm0 0" />
    </symbol>
    <symbol id="prefix__z" overflow="visible">
      <path
        d="M1.094-3.422V-.75c0 .438-.11.438-.782.438V0c.36-.016.86-.031 1.141-.031.25 0 .766.015 1.11.031v-.313c-.672 0-.782 0-.782-.437v-1.844c0-1.031.719-1.594 1.344-1.594.64 0 .75.532.75 1.11V-.75c0 .438-.11.438-.781.438V0c.344-.016.86-.031 1.125-.031.25 0 .781.015 1.11.031v-.313c-.657 0-.766 0-.766-.437v-1.844c0-1.031.703-1.594 1.343-1.594.625 0 .735.532.735 1.11V-.75c0 .438-.11.438-.782.438V0c.344-.016.86-.031 1.125-.031.266 0 .782.015 1.125.031v-.313c-.515 0-.765 0-.78-.296v-1.907c0-.859 0-1.156-.313-1.515-.141-.172-.47-.375-1.047-.375-.828 0-1.282.593-1.438.984-.14-.875-.875-.984-1.328-.984-.734 0-1.203.422-1.484 1.047v-1.047l-1.407.11v.312c.704 0 .782.062.782.562zm0 0" />
    </symbol>
    <symbol id="prefix__A" overflow="visible">
      <path
        d="M4.688-2.14c0-1.266-.985-2.329-2.188-2.329C1.25-4.469.281-3.375.281-2.14A2.22 2.22 0 002.484.11c1.204 0 2.204-.984 2.204-2.25zM2.5-.14c-.438 0-.875-.204-1.14-.672-.25-.438-.25-1.047-.25-1.407 0-.39 0-.922.234-1.36a1.347 1.347 0 011.14-.671c.438 0 .86.219 1.125.656.266.422.266 1 .266 1.375 0 .36 0 .906-.219 1.344-.234.453-.672.734-1.156.734zm0 0" />
    </symbol>
    <symbol id="prefix__B" overflow="visible">
      <path
        d="M1.719-3.984h1.437v-.313H1.72v-1.828h-.25c0 .813-.297 1.875-1.282 1.922v.219h.844v2.75c0 1.218.938 1.343 1.297 1.343.703 0 .985-.703.985-1.343v-.563h-.25v.547c0 .734-.297 1.11-.672 1.11-.672 0-.672-.907-.672-1.079zm0 0" />
    </symbol>
    <symbol id="prefix__C" overflow="visible">
      <path
        d="M1.094-.75c0 .438-.11.438-.782.438V0c.36-.016.86-.031 1.141-.031.25 0 .766.015 1.11.031v-.313c-.672 0-.782 0-.782-.437v-1.844c0-1.031.719-1.594 1.344-1.594.64 0 .75.532.75 1.11V-.75c0 .438-.11.438-.781.438V0c.344-.016.86-.031 1.125-.031.25 0 .781.015 1.11.031v-.313c-.516 0-.766 0-.766-.296v-1.907c0-.859 0-1.156-.313-1.515-.14-.172-.469-.375-1.047-.375-.844 0-1.281.593-1.453.984v-3.5l-1.438.11v.312c.704 0 .782.063.782.563zm0 0" />
    </symbol>
    <symbol id="prefix__D" overflow="visible">
      <path
        d="M1.11-2.516C1.171-4 2.015-4.25 2.36-4.25c1.015 0 1.124 1.344 1.124 1.734zm0 .22h2.78c.22 0 .25 0 .25-.22 0-.984-.546-1.953-1.78-1.953C1.202-4.469.28-3.437.28-2.187.281-.86 1.328.108 2.47.108 3.688.11 4.14-1 4.14-1.187c0-.094-.079-.125-.141-.125-.078 0-.11.062-.125.14C3.531-.14 2.625-.14 2.531-.14c-.5 0-.89-.296-1.125-.671-.297-.47-.297-1.125-.297-1.485zm0 0" />
    </symbol>
    <symbol id="prefix__E" overflow="visible">
      <path
        d="M3.781-.547V.11L5.25 0v-.313c-.688 0-.781-.062-.781-.562v-6.047l-1.422.11v.312c.687 0 .765.063.765.563v2.156a1.582 1.582 0 00-1.25-.625c-1.171 0-2.218.984-2.218 2.265 0 1.266.969 2.25 2.11 2.25.64 0 1.077-.343 1.327-.656zm0-2.672v2.047c0 .172 0 .188-.11.36-.296.484-.733.703-1.171.703-.453 0-.813-.266-1.047-.641-.25-.406-.281-.969-.281-1.39 0-.36.016-.954.297-1.407.218-.312.593-.64 1.14-.64.344 0 .766.156 1.063.593.11.172.11.188.11.375zm0 0" />
    </symbol>
    <symbol id="prefix__g" overflow="visible">
      <path
        d="M5.188-1.578c.109 0 .28 0 .28-.156 0-.188-.171-.188-.28-.188H1.03c-.11 0-.281 0-.281.172s.156.172.281.172zm0 0" />
    </symbol>
    <symbol id="prefix__h" overflow="visible">
      <path
        d="M2.328-4.438c0-.187 0-.187-.203-.187-.453.438-1.078.438-1.36.438v.25c.157 0 .626 0 1-.188v3.547c0 .234 0 .328-.687.328H.812V0c.125 0 .985-.031 1.235-.031.219 0 1.094.031 1.25.031v-.25H3.03c-.703 0-.703-.094-.703-.328zm0 0" />
    </symbol>
    <symbol id="prefix__i" overflow="visible">
      <path
        d="M3.594-2.219c0-.765-.094-1.328-.406-1.812-.22-.313-.657-.594-1.204-.594C.36-4.625.36-2.719.36-2.219c0 .5 0 2.36 1.625 2.36 1.61 0 1.61-1.86 1.61-2.36zM1.984-.063c-.328 0-.75-.187-.89-.75C1-1.219 1-1.796 1-2.313c0-.515 0-1.046.094-1.421.156-.547.593-.704.89-.704.375 0 .735.235.86.641.11.375.125.875.125 1.485 0 .515 0 1.03-.094 1.468-.14.64-.61.781-.89.781zm0 0" />
    </symbol>
    <symbol id="prefix__j" overflow="visible">
      <path
        d="M3.516-1.266H3.28c-.015.157-.094.563-.187.625-.047.047-.578.047-.688.047H1.125c.734-.64.984-.844 1.39-1.172.516-.406 1-.843 1-1.5 0-.843-.734-1.359-1.624-1.359-.86 0-1.454.61-1.454 1.25 0 .344.297.39.376.39.156 0 .359-.124.359-.374 0-.125-.047-.375-.406-.375.218-.485.687-.641 1.015-.641.703 0 1.063.547 1.063 1.11 0 .609-.438 1.078-.656 1.328L.516-.266C.437-.203.437-.187.437 0h2.876zm0 0" />
    </symbol>
    <symbol id="prefix__k" overflow="visible">
      <path
        d="M1.906-2.328c.547 0 .938.375.938 1.125 0 .86-.516 1.125-.906 1.125-.282 0-.907-.078-1.188-.5.328 0 .406-.235.406-.39 0-.22-.172-.376-.39-.376a.38.38 0 00-.391.407C.375-.281 1.094.14 1.938.14c.968 0 1.64-.657 1.64-1.344 0-.547-.437-1.094-1.203-1.25.719-.266.984-.781.984-1.219 0-.547-.625-.953-1.406-.953-.766 0-1.36.375-1.36.938 0 .234.157.359.36.359.219 0 .36-.156.36-.344 0-.203-.141-.36-.36-.375.25-.297.719-.375.985-.375.312 0 .75.156.75.75 0 .297-.094.625-.282.828-.219.266-.422.281-.765.313-.172.015-.188.015-.22.015-.015 0-.077.016-.077.094 0 .094.062.094.187.094zm0 0" />
    </symbol>
    <symbol id="prefix__l" overflow="visible">
      <path
        d="M3.688-1.14v-.25h-.782V-4.5c0-.14 0-.203-.14-.203-.094 0-.125 0-.188.11L.266-1.392v.25h2.062v.563c0 .25 0 .328-.578.328h-.188V0c.36-.016.797-.031 1.047-.031.266 0 .704.015 1.063.031v-.25h-.188c-.578 0-.578-.078-.578-.328v-.563zM2.375-3.939v2.547H.531zm0 0" />
    </symbol>
    <clipPath id="prefix__m">
      <path d="M51 10.16h272v127.028H51zm0 0" />
    </clipPath>
    <clipPath id="prefix__n">
      <path d="M113 15h143v122.188H113zm0 0" />
    </clipPath>
  </defs>
  <path fill="none" stroke="gray" stroke-miterlimit="10" stroke-width=".199"
    d="M54.438 137.188v-4.25m36.3 4.25v-4.25m36.301 4.25v-4.25m36.3 4.25v-4.25m36.302 4.25v-4.25m36.3 4.25v-4.25m36.301 4.25v-4.25m36.301 4.25v-4.25M54.437 10.16v4.25m36.301-4.25v4.25m36.301-4.25v4.25m36.3-4.25v4.25m36.302-4.25v4.25m36.3-4.25v4.25m36.301-4.25v4.25m36.301-4.25v4.25M37.46 136.79h2.837m-2.836-1.298h2.836m-2.836-1.14h2.836m-2.836-1.024h2.836m-2.836-6.726h2.836m-2.836-3.938h2.836m-2.836-2.793h2.836m-2.836-2.164h2.836m-2.836-1.77h2.836m-2.836-1.496h2.836m-2.836-1.296h2.836m-2.836-1.141h2.836m-2.836-1.024h2.836m-2.836-6.726h2.836m-2.836-3.938h2.836m-2.836-2.789h2.836M37.46 95.36h2.836m-2.836-1.77h2.836m-2.836-1.495h2.836m-2.836-1.297h2.836m-2.836-1.14h2.836m-2.836-1.024h2.836m-2.836-6.727h2.836M37.46 77.97h2.836m-2.836-2.79h2.836m-2.836-2.167h2.836m-2.836-1.77h2.836m-2.836-1.496h2.836M37.46 68.45h2.836m-2.836-1.14h2.836m-2.836-1.024h2.836M37.46 59.56h2.836M37.46 55.62h2.836m-2.836-2.789h2.836m-2.836-2.168h2.836m-2.836-1.77h2.836m-2.836-1.496h2.836m-2.836-1.296h2.836M37.46 44.96h2.836m-2.836-1.023h2.836M37.46 37.21h2.836m-2.836-3.938h2.836m-2.836-2.789h2.836m-2.836-2.168h2.836m-2.836-1.77h2.836m-2.836-1.495h2.836m-2.836-1.297h2.836m-2.836-1.14h2.836M37.46 21.59h2.836m-2.836-6.727h2.836m-2.836-3.937h2.836m296.05 125.863h-2.835m2.836-1.297h-2.836m2.836-1.14h-2.836m2.836-1.024h-2.836m2.836-6.726h-2.836m2.836-3.938h-2.836m2.836-2.793h-2.836m2.836-2.164h-2.836m2.836-1.77h-2.836m2.836-1.496h-2.836m2.836-1.296h-2.836m2.836-1.141h-2.836m2.836-1.024h-2.836m2.836-6.726h-2.836m2.836-3.938h-2.836m2.836-2.789h-2.836m2.836-2.168h-2.836m2.836-1.77h-2.836m2.836-1.495h-2.836m2.836-1.297h-2.836m2.836-1.14h-2.836m2.836-1.024h-2.836m2.836-6.727h-2.836m2.836-3.937h-2.836m2.836-2.79h-2.836m2.836-2.167h-2.836m2.836-1.77h-2.836m2.836-1.496h-2.836m2.836-1.297h-2.836m2.836-1.14h-2.836m2.836-1.024h-2.836m2.836-6.726h-2.836m2.836-3.938h-2.836m2.836-2.789h-2.836m2.836-2.168h-2.836m2.836-1.77h-2.836m2.836-1.496h-2.836m2.836-1.296h-2.836m2.836-1.141h-2.836m2.836-1.023h-2.836m2.836-6.727h-2.836m2.836-3.938h-2.836m2.836-2.789h-2.836m2.836-2.168h-2.836m2.836-1.77h-2.836m2.836-1.495h-2.836m2.836-1.297h-2.836m2.836-1.14h-2.836m2.836-1.024h-2.836m2.836-6.727h-2.836m2.836-3.937h-2.836M37.46 133.328h4.255M37.46 110.98h4.254M37.46 88.633h4.254M37.46 66.285h4.254M37.46 43.938h4.254M37.46 21.59h4.254m294.633 111.738h-4.25m4.25-22.348h-4.25m4.25-22.347h-4.25m4.25-22.348h-4.25m4.25-22.347h-4.25m4.25-22.348h-4.25" />
  <path fill="none" stroke="#000" stroke-miterlimit="10" stroke-width=".399"
    d="M37.46 137.188V10.16h298.888v127.028zm0 0" />
  <use x="48.073" y="147.127" xlink:href="#prefix__a" />
  <use x="55.822" y="147.127" xlink:href="#prefix__b" />
  <use x="84.373" y="147.127" xlink:href="#prefix__a" />
  <use x="92.122" y="147.127" xlink:href="#prefix__c" />
  <use x="120.674" y="147.127" xlink:href="#prefix__a" />
  <use x="128.422" y="147.127" xlink:href="#prefix__d" />
  <use x="156.974" y="147.127" xlink:href="#prefix__a" />
  <use x="164.723" y="147.127" xlink:href="#prefix__e" />
  <use x="197.149" y="147.127" xlink:href="#prefix__f" />
  <use x="233.449" y="147.127" xlink:href="#prefix__e" />
  <use x="269.749" y="147.127" xlink:href="#prefix__d" />
  <use x="306.05" y="147.127" xlink:href="#prefix__c" />
  <use x="13.283" y="137.382" xlink:href="#prefix__e" />
  <use x="18.264" y="137.382" xlink:href="#prefix__f" />
  <use x="23.246" y="133.766" xlink:href="#prefix__g" />
  <use x="29.473" y="133.766" xlink:href="#prefix__h" />
  <use x="19.51" y="115.035" xlink:href="#prefix__e" />
  <use x="24.491" y="115.035" xlink:href="#prefix__f" />
  <use x="29.473" y="111.419" xlink:href="#prefix__i" />
  <use x="19.51" y="92.687" xlink:href="#prefix__e" />
  <use x="24.491" y="92.687" xlink:href="#prefix__f" />
  <use x="29.473" y="89.072" xlink:href="#prefix__h" />
  <use x="19.51" y="70.34" xlink:href="#prefix__e" />
  <use x="24.491" y="70.34" xlink:href="#prefix__f" />
  <use x="29.473" y="66.725" xlink:href="#prefix__j" />
  <use x="19.51" y="47.993" xlink:href="#prefix__e" />
  <use x="24.491" y="47.993" xlink:href="#prefix__f" />
  <use x="29.473" y="44.377" xlink:href="#prefix__k" />
  <use x="19.51" y="25.646" xlink:href="#prefix__e" />
  <use x="24.491" y="25.646" xlink:href="#prefix__f" />
  <use x="29.473" y="22.03" xlink:href="#prefix__l" />
  <g clip-path="url(#prefix__m)">
    <path fill="none" class="original" stroke-miterlimit="10"
      d="M62.371 126.602h1.25l1.254-6.73 1.25 6.73h7.508l1.254-6.73 1.25-6.727h5.008l1.25 6.726h2.503l1.254-3.933 1.25 3.933h1.25l1.254-8.89 1.25 2.164 1.254-3.934 1.25-2.793 1.25-2.164 1.254 3.46 1.25-3.46 1.254 3.46 1.25-2.437 1.25-2.793 1.254-1.496h1.25l1.254-2.441 1.25 1.77 1.254 2.167h1.25l1.25 1.77 1.254-1.77 1.25-.777 1.254-.719 1.25-.672 1.25-2.789 1.253.496h1.25l1.254.524 1.25-1.496 1.25.972 1.254-.972h1.25l1.254-3.461 1.25 2.168 1.25-1.145 1.254.746 1.25-1.097 1.254 1.496 1.25-4.461 1.254-.5 1.25-.238 1.25-1.118 1.254-1.734 1.25 1.121 1.254-1.965 1.25-.777 1.25.305 1.254-.598 1.25-.145 1.253-.14 1.25-.809 1.25-1.101 1.254.593 1.25-.82 1.254.82 1.25-.707 1.254-.77 1.25-1.91 1.25-1.593 1.254-1.988 1.25-1.993 1.254-1.82 1.25-1.324 1.25-1.559 1.254-1.554 1.25-.88 1.254-.894 1.25-1.125 1.25-1.394 1.254-1.407 1.25-2 1.254-2.02 1.25-1.991 1.254-2.203 1.25-2.266 1.25-2.29 1.253-2.495 1.25-2.403 1.254-2.378 1.25-2.508 1.25-2.414 1.254-2.348 1.25-2.355 1.254-2.215 1.25-2.078 1.25-1.95 1.254-1.703 1.25-1.492 1.254-1.266 1.25-.988 1.254-.726 1.25-.438 1.25.106 1.254.695 1.25 1.402 1.254 2.23 1.25 3.258 1.25 4.141 1.254 5.024 1.25 5.742 1.254 6.136 1.25 5.864 1.25 5.758 1.253 6.968 1.25 5.965 1.254 5.25 1.25 4.906 1.25 4.063 1.254 4.71 1.25 3.638 1.254 3.09 1.25 4.562 1.254 2.164 1.25 1.297 1.25 3.265 1.254 4.957h1.25l1.254 3.934h1.25l1.25 6.73h10.015l1.25-6.73h1.254l1.25 6.73h10.012l1.254-6.73 1.25-3.933 1.25-2.793 1.254-3.934 1.25 1.77 1.254 2.164 1.25 2.793h1.254l1.25-2.793 1.25-3.934 1.254-2.793 1.25-5.43 1.254-1.883h1.25l1.25-.558h2.503l1.254-.524 1.25-4.105 1.25-1.824 1.254-3.067 1.25-1.14 1.254-.86 1.25.332 1.254-1.992 1.25-.273 1.25-2.38 1.254-1.644 1.25-1.71 1.254-.926 1.25-1.27 1.25-.059 1.254-.117 1.25.235 1.254.492 1.25 1.066 1.25.578 1.254.778 1.25 1.386 1.254 2.793 1.25 3.043 1.25 5.606" />
  </g>
  <g clip-path="url(#prefix__n)">
    <path fill="none" class="smoothed" stroke-miterlimit="10"
      d="M125.184 119.871h3.601l.598-3.933.601-2.793h2.399l.601 6.726.598-6.726h1.2l.6 2.793h.598l1.204 10.664.597-6.73.602-3.935.597-6.726.602-2.793.598-1.14h.601l.602-1.024.597-1.77.602-1.496h.598l.601-1.297h.598l.601 2.016h.602l.598-1.39h.601l.598-2.294.601-.972h.602l.598.476.601-.925.598.925.601-1.359.598-1.555.602-1.648h.601l.598-2.168.601.246.598.512h.602l.597-.996.602 1.816.601-.555.598-.265.602-.258.597.797.602-1.535.598.238.601-.7.602.462.597-2.118.602-.554.598-.86.601-.484.598-1.715.601.54.602-.927.598.13.601.257h.598l.601-.996.598-.574.602-1.156.601-1.032.598.09.601-1.652.598-.371.602-1.102.597-.93.602-2.214.601-.325.598-1.199.602-.547.597-1.707.602-.765.597-1.348.602-1.363.602-1.563.597-.976.602-1.118.597-1.113.602-1.035.598-1.098.601-1.445.602-1.531.597-1.535.602-1.535.598-1.528.601-1.367.598-1.461.601-1.437.602-1.286.598-1.406.601-1.262.598-1.433.601-1.223.598-1.332.602-1.254.601-1.133.598-1.113.601-1.176.598-1.043.602-.996.601-1.086.598-.879.601-.921.598-.766.602-.719.597-.605.602-.559.601-.387.598-.425.602-.344.597-.258.602-.215.598-.137.601-.027.602.164.597.328.602.582.598.84.601 1.188.598 1.523.601 1.844.602 2.203.598 2.574.601 2.86.598 2.964.601 3.344.598 3.465.602 3.426.601 3.476.598 3.309.601 3.121.598 2.559.602 2.293.597 1.707.602 2.14.601.832.598.871.602.043.597.516.602-.516.597-.043.602-.992.602.121.597.211.602.703.597.184.602 1.668.598 1.684.601-.387.602 1.277.597 1.227.602 1.687.598.196.601 2.468.598.13.601 1.386.602-.148.598 1.253.601.516.598.926.601-1.102.598.535.602.375.601.793.598.864.601 2.277.598-.555.602.555.597.898h.602l.601-.898.598 2.238.602 1.555h.597l.602 1.36.597 3.46.602 2.34.602 1.95.597 3.933.602 1.77h2.398l.602 4.957.597 3.933" />
  </g>
  <path fill="#fff" d="M242.57 41.684h87.598V12.902H242.57zm0 0" />
  <path fill="none" class="original" stroke-miterlimit="10" stroke-width=".797" d="M245.953 21.094h17.008" />
  <g>
    <use x="265.353" y="23.806" xlink:href="#prefix__o" />
    <use x="273.102" y="23.806" xlink:href="#prefix__p" />
    <use x="277.004" y="23.806" xlink:href="#prefix__q" />
    <use x="279.772" y="23.806" xlink:href="#prefix__r" />
    <use x="284.753" y="23.806" xlink:href="#prefix__q" />
    <use x="287.521" y="23.806" xlink:href="#prefix__s" />
    <use x="293.056" y="23.806" xlink:href="#prefix__t" />
    <use x="298.037" y="23.806" xlink:href="#prefix__u" />
  </g>
  <path fill="none" class="smoothed" stroke-miterlimit="10" stroke-width=".797" d="M245.953 33.492h17.008" />
  <g>
    <use x="265.353" y="36.204" xlink:href="#prefix__v" />
    <use x="272.548" y="36.204" xlink:href="#prefix__w" />
    <use x="280.02" y="36.204" xlink:href="#prefix__x" />
    <use x="283.34" y="36.204" xlink:href="#prefix__y" />
    <use x="287.27" y="36.204" xlink:href="#prefix__z" />
    <use x="295.572" y="36.204" xlink:href="#prefix__A" />
  </g>
  <g>
    <use x="300.832" y="36.204" xlink:href="#prefix__A" />
    <use x="305.813" y="36.204" xlink:href="#prefix__B" />
    <use x="309.688" y="36.204" xlink:href="#prefix__C" />
    <use x="315.223" y="36.204" xlink:href="#prefix__D" />
    <use x="319.65" y="36.204" xlink:href="#prefix__E" />
  </g>
</svg>